<?xml version="1.0" standalone="no"?>
<!DOCTYPE svg PUBLIC "-//W3C//DTD SVG 20010904//EN"
 "http://www.w3.org/TR/2001/REC-SVG-20010904/DTD/svg10.dtd">
<svg version="1.0" xmlns="http://www.w3.org/2000/svg"
 width="3333.000000pt" height="3333.000000pt" viewBox="0 0 3333.000000 3333.000000"
 preserveAspectRatio="xMidYMid meet">
<metadata>
Created by potrace 1.11, written by Peter Selinger 2001-2013
</metadata>
<g transform="translate(0.000000,3333.000000) scale(0.100000,-0.100000)"
fill="#000000" stroke="none">
<path d="M1460 33312 c0 -10 -5 -23 -12 -30 -6 -6 -17 -26 -23 -44 -21 -56
-135 -321 -156 -360 -11 -21 -17 -38 -14 -38 3 0 -1 -10 -9 -22 -9 -12 -16
-35 -16 -51 0 -15 -7 -30 -15 -33 -8 -4 -15 -14 -15 -24 0 -11 -4 -22 -10 -25
-5 -3 -10 -17 -10 -30 0 -12 -6 -25 -14 -28 -8 -3 -17 -25 -21 -49 -4 -24 -10
-45 -14 -48 -13 -10 -31 -50 -31 -69 0 -10 -7 -24 -15 -31 -8 -7 -18 -30 -21
-51 -4 -21 -10 -36 -15 -33 -5 3 -9 -1 -9 -9 0 -7 -9 -32 -20 -55 -11 -22 -20
-47 -20 -55 0 -7 -7 -22 -15 -33 -8 -10 -15 -28 -15 -39 0 -11 -14 -40 -30
-64 -17 -24 -30 -52 -30 -61 0 -10 -6 -23 -14 -29 -8 -7 -17 -30 -21 -51 -4
-21 -15 -49 -26 -61 -10 -12 -19 -33 -19 -46 0 -13 -7 -26 -15 -29 -8 -4 -15
-16 -15 -28 0 -11 -4 -28 -10 -36 -5 -9 -5 -17 1 -21 6 -3 6 -14 0 -30 -5 -13
-10 -18 -10 -10 -2 33 -30 -26 -31 -61 0 -27 -4 -38 -15 -38 -19 0 -37 -41
-24 -54 12 -13 12 -63 0 -70 -5 -3 -12 4 -15 17 -6 21 -8 20 -25 -13 -11 -22
-14 -39 -8 -45 6 -7 11 -6 14 3 3 6 13 12 24 12 10 0 19 7 19 15 0 11 11 15
40 15 22 0 40 5 40 10 0 6 18 10 40 10 38 0 40 2 40 30 0 28 2 30 40 30 22 0
40 5 40 10 0 6 33 10 80 10 l80 0 0 30 c0 28 2 30 40 30 22 0 40 5 40 10 0 6
18 10 40 10 38 0 40 2 40 30 l0 30 80 0 c47 0 80 4 80 10 0 6 18 10 40 10 38
0 40 2 40 30 0 28 2 30 40 30 22 0 40 5 40 10 0 6 18 10 40 10 38 0 40 2 40
30 l0 30 80 0 c52 0 80 4 80 11 0 7 16 10 43 8 38 -3 43 -2 39 13 -8 30 7 68
27 68 12 0 22 -13 31 -42 18 -56 26 -65 35 -37 7 23 72 164 101 221 8 14 14
32 14 40 0 7 9 30 20 51 11 21 21 49 22 62 1 14 7 25 14 25 6 0 17 18 24 40 7
22 16 40 20 40 4 0 18 32 31 70 13 39 27 70 31 70 5 0 8 7 8 15 0 8 4 23 9 33
6 9 22 46 36 82 15 36 31 72 36 80 5 8 12 22 15 30 3 8 16 36 30 62 13 27 24
53 24 58 0 6 14 41 30 78 17 37 39 84 48 104 9 21 20 38 25 38 4 0 7 9 7 19 0
11 7 32 15 48 8 15 22 46 31 68 9 22 22 52 30 67 8 14 14 29 14 32 0 3 -268 6
-595 6 -566 0 -595 -1 -595 -18z m785 -792 c3 -6 -1 -7 -9 -4 -18 7 -21 14 -7
14 6 0 13 -4 16 -10z m-85 -215 c0 -10 -10 -15 -30 -15 -29 0 -30 -1 -30 -51
0 -31 -4 -48 -10 -44 -5 3 -10 33 -10 66 l0 59 40 0 c29 0 40 -4 40 -15z
m-140 -179 c0 -3 -4 -8 -10 -11 -5 -3 -10 -1 -10 4 0 6 5 11 10 11 6 0 10 -2
10 -4z m10 -91 c0 -8 -4 -15 -10 -15 -5 0 -10 7 -10 15 0 8 5 15 10 15 6 0 10
-7 10 -15z m-670 -50 c0 -11 -11 -15 -40 -15 -29 0 -40 4 -40 15 0 11 11 15
40 15 29 0 40 -4 40 -15z m-400 -160 c0 -11 -11 -15 -40 -15 -29 0 -40 4 -40
15 0 11 11 15 40 15 29 0 40 -4 40 -15z m-95 -5 c3 -5 1 -10 -4 -10 -6 0 -11
5 -11 10 0 6 2 10 4 10 3 0 8 -4 11 -10z m-71 -197 c-2 -55 -3 -59 -13 -44 -5
8 -7 20 -5 28 11 37 14 43 17 43 1 0 2 -12 1 -27z"/>
<path d="M3441 33308 c-8 -21 -132 -307 -167 -383 -7 -16 -79 -181 -159 -365
-81 -184 -153 -348 -160 -365 -8 -16 -39 -88 -70 -160 -91 -208 -196 -447
-210 -480 -7 -16 -32 -73 -54 -125 -23 -52 -46 -104 -51 -115 -5 -11 -25 -58
-46 -105 -20 -47 -49 -113 -65 -148 -16 -35 -29 -66 -29 -70 0 -4 -14 -34 -30
-67 -16 -33 -30 -63 -30 -67 0 -4 -18 -46 -40 -93 -22 -47 -40 -88 -40 -90 0
-2 -16 -39 -36 -82 -20 -43 -45 -100 -56 -128 -10 -27 -35 -83 -54 -123 -19
-40 -34 -75 -34 -78 0 -3 -9 -24 -19 -47 -11 -23 -47 -105 -81 -182 -34 -77
-68 -153 -75 -170 -7 -16 -44 -100 -80 -185 -37 -85 -77 -177 -90 -205 -12
-27 -44 -99 -70 -160 -26 -60 -55 -128 -65 -150 -10 -22 -41 -94 -70 -160 -29
-66 -92 -210 -140 -320 -48 -110 -111 -254 -140 -320 -29 -66 -65 -148 -81
-183 -16 -35 -29 -65 -29 -67 0 -2 -16 -38 -35 -79 -19 -42 -35 -78 -35 -81 0
-4 -39 -93 -75 -170 -7 -16 -45 -102 -83 -190 -88 -201 -173 -395 -202 -460
-12 -27 -26 -59 -30 -70 -23 -54 -123 -284 -135 -310 -23 -48 -103 -232 -147
-335 -23 -52 -46 -104 -53 -115 -22 -36 -26 -72 -9 -89 8 -9 19 -16 24 -16 5
0 21 -11 36 -25 15 -14 39 -25 53 -25 14 0 39 -11 55 -25 16 -14 41 -25 56
-25 15 0 33 -7 40 -15 7 -8 31 -20 53 -26 23 -6 52 -19 65 -30 14 -10 35 -19
47 -19 12 0 34 -9 48 -20 14 -11 35 -20 48 -20 12 0 37 -11 55 -25 18 -14 43
-25 55 -25 12 0 37 -11 55 -25 18 -14 44 -25 57 -25 13 0 36 -9 50 -20 14 -11
36 -20 50 -20 13 0 32 -9 42 -20 10 -11 34 -23 54 -26 20 -4 47 -15 60 -25 13
-11 33 -19 45 -19 12 0 37 -11 56 -25 19 -14 46 -25 60 -25 15 0 35 -9 45 -20
10 -11 29 -20 43 -20 14 0 40 -11 58 -25 18 -14 44 -25 58 -25 13 0 31 -6 38
-13 20 -21 54 -37 76 -37 10 0 29 -9 42 -20 13 -11 34 -20 48 -20 13 0 37 -11
54 -25 16 -14 42 -25 57 -25 15 0 36 -8 45 -19 9 -10 32 -21 52 -24 19 -3 46
-15 61 -26 14 -12 38 -21 53 -21 15 0 35 -9 45 -20 10 -11 31 -20 46 -20 15 0
41 -11 57 -25 17 -14 41 -25 54 -25 14 0 38 -11 54 -25 16 -14 40 -25 52 -25
13 0 35 -9 49 -20 14 -11 37 -20 50 -20 14 0 38 -11 55 -25 16 -14 42 -25 58
-25 15 0 33 -7 40 -15 7 -8 31 -20 54 -27 22 -6 52 -20 65 -30 13 -10 37 -18
52 -18 18 0 34 -8 41 -20 8 -13 24 -20 42 -20 16 0 44 -11 62 -25 18 -14 43
-25 56 -25 13 0 39 -11 58 -25 19 -14 44 -25 55 -25 12 0 30 -9 40 -20 11 -12
31 -20 51 -20 21 0 40 -8 55 -25 16 -16 35 -25 55 -25 18 0 38 -8 49 -20 10
-11 35 -23 56 -26 21 -4 46 -15 55 -25 9 -11 29 -19 44 -19 15 0 38 -8 51 -19
13 -10 40 -21 60 -25 20 -3 44 -15 54 -26 10 -11 31 -20 47 -20 18 0 36 -9 50
-25 14 -17 32 -25 53 -25 19 0 39 -8 50 -20 11 -12 31 -20 52 -20 18 0 33 -4
33 -8 0 -13 56 -42 81 -42 12 0 33 -10 46 -22 12 -12 37 -23 54 -25 17 -2 42
-12 56 -23 14 -11 36 -20 49 -20 12 0 36 -12 53 -26 20 -17 39 -24 52 -21 12
3 30 -4 47 -17 15 -13 43 -26 62 -30 20 -3 42 -15 50 -26 9 -13 26 -20 46 -20
18 0 38 -8 49 -20 10 -11 31 -20 46 -20 15 0 41 -11 57 -25 17 -14 42 -25 57
-25 20 0 39 -12 67 -42 38 -41 40 -45 37 -103 -4 -79 -2 -173 5 -323 4 -97 12
-141 35 -215 16 -50 37 -126 47 -167 9 -41 24 -93 34 -115 9 -22 24 -60 34
-85 10 -25 24 -56 31 -70 8 -14 46 -89 85 -167 51 -102 84 -155 119 -190 26
-26 66 -78 89 -114 27 -43 57 -76 86 -94 24 -15 53 -45 65 -65 12 -22 33 -42
49 -48 33 -11 92 -68 92 -88 0 -8 10 -14 25 -14 17 0 43 -16 73 -44 26 -24 62
-47 81 -51 22 -5 39 -17 50 -36 11 -21 22 -28 35 -25 25 6 64 -13 71 -36 5
-13 16 -18 40 -18 24 0 37 -7 50 -26 14 -23 22 -25 52 -21 29 5 39 2 59 -20
18 -20 30 -24 52 -20 21 4 36 0 57 -19 21 -18 40 -24 73 -24 27 0 52 -6 63
-16 20 -18 41 -20 86 -10 27 6 36 3 56 -18 23 -25 26 -25 80 -14 51 11 58 10
77 -7 19 -17 27 -18 114 -6 82 11 99 10 124 -3 26 -13 35 -13 83 0 132 38 169
45 189 34 26 -14 83 -12 122 4 18 7 58 21 88 30 30 10 73 26 95 36 22 11 94
40 160 65 66 25 128 50 137 55 10 6 23 10 29 10 10 0 172 74 231 106 14 8 33
14 42 14 9 0 19 6 22 14 5 12 37 27 66 30 4 1 13 7 19 14 7 6 19 12 26 12 7 0
13 7 13 16 0 10 6 14 18 10 9 -3 28 1 42 9 l25 14 -25 1 c-14 0 -42 -9 -63
-20 -21 -11 -48 -21 -61 -22 -14 -1 -23 -5 -21 -8 8 -13 -182 -53 -219 -46
-21 4 -45 2 -58 -5 -12 -6 -72 -15 -132 -20 -61 -4 -131 -15 -156 -24 -34 -13
-86 -18 -208 -20 -90 -2 -176 0 -191 5 -16 4 -50 4 -76 -1 -41 -8 -53 -6 -82
12 -27 17 -43 20 -74 15 -32 -5 -48 -2 -76 15 -25 16 -44 20 -70 16 -27 -5
-43 -1 -64 13 -15 11 -40 20 -57 20 -16 0 -41 9 -55 21 -15 11 -42 23 -61 26
-20 3 -43 14 -52 24 -10 11 -30 19 -49 19 -21 0 -39 8 -53 25 -13 15 -33 25
-48 25 -16 0 -34 10 -46 25 -11 14 -30 25 -43 25 -14 0 -39 13 -57 29 -18 16
-52 39 -76 51 -23 12 -51 35 -63 51 -11 16 -38 38 -60 49 -22 12 -53 39 -69
62 -17 23 -45 49 -62 57 -17 8 -45 35 -62 60 -17 24 -58 73 -91 107 -38 40
-78 96 -109 156 -27 51 -69 119 -93 150 -23 31 -43 61 -43 66 0 6 -6 23 -14
39 -8 15 -22 48 -31 73 -25 64 -30 78 -60 145 -14 33 -28 83 -31 110 -5 58
-19 128 -45 235 -10 42 -19 117 -19 170 -3 180 -3 215 1 272 5 72 -20 111 -73
116 -22 2 -44 13 -58 28 -16 16 -34 24 -55 24 -19 0 -39 8 -50 20 -11 12 -31
20 -50 20 -21 0 -40 9 -55 25 -14 14 -35 25 -50 25 -14 0 -42 11 -61 25 -19
14 -42 24 -52 21 -10 -2 -30 7 -46 20 -16 13 -41 24 -57 24 -15 0 -38 10 -52
22 -13 13 -37 23 -53 24 -17 1 -40 11 -53 23 -12 11 -32 21 -44 21 -11 0 -38
11 -58 25 -20 14 -49 25 -63 25 -15 0 -31 8 -39 20 -8 13 -23 20 -45 20 -23 0
-41 8 -57 25 -15 16 -34 25 -55 25 -19 0 -39 8 -50 20 -10 11 -31 20 -46 20
-15 0 -41 11 -57 25 -17 14 -43 25 -59 25 -17 0 -38 9 -48 20 -10 11 -31 20
-46 20 -15 0 -41 11 -57 25 -17 14 -43 25 -59 25 -19 0 -38 9 -53 25 -14 15
-35 25 -52 25 -15 0 -37 9 -48 20 -11 11 -33 20 -49 20 -16 0 -39 10 -55 25
-17 16 -39 25 -59 25 -21 0 -36 7 -45 20 -7 12 -23 20 -40 20 -16 0 -43 11
-62 25 -19 14 -46 25 -60 25 -15 0 -35 9 -45 20 -11 12 -31 20 -50 20 -21 0
-40 9 -55 25 -15 16 -34 25 -54 25 -16 0 -40 9 -52 21 -12 11 -36 22 -54 24
-18 3 -43 14 -55 25 -12 11 -34 20 -50 20 -16 0 -39 10 -53 22 -13 13 -37 23
-53 24 -17 1 -39 11 -50 23 -11 12 -32 21 -48 21 -15 0 -41 11 -57 25 -16 14
-41 25 -55 25 -14 0 -34 9 -44 20 -10 11 -31 20 -48 20 -16 0 -42 11 -59 25
-16 14 -42 25 -57 25 -15 0 -36 9 -46 20 -11 12 -31 20 -50 20 -21 0 -40 9
-55 25 -15 16 -34 25 -55 25 -19 0 -39 8 -50 20 -10 11 -31 20 -46 20 -15 0
-41 11 -57 25 -17 14 -41 25 -55 25 -13 0 -36 9 -50 20 -14 11 -34 20 -45 20
-10 0 -36 11 -56 25 -20 14 -48 25 -61 25 -13 0 -36 11 -51 25 -15 14 -39 25
-54 25 -15 0 -35 9 -45 20 -10 11 -31 20 -48 20 -16 0 -42 11 -59 25 -16 14
-42 25 -57 25 -15 0 -36 9 -46 20 -10 11 -31 20 -48 20 -16 0 -42 11 -59 25
-16 14 -42 25 -57 25 -15 0 -36 9 -46 20 -10 11 -31 20 -46 20 -15 0 -41 11
-57 25 -17 14 -43 25 -59 25 -17 0 -38 8 -47 19 -9 10 -34 21 -54 25 -20 3
-45 15 -54 26 -11 12 -30 20 -48 20 -17 0 -39 9 -50 20 -11 11 -37 24 -58 28
-36 8 -37 9 -36 53 0 24 11 67 23 94 27 58 39 85 111 250 29 66 60 138 70 160
10 22 41 94 70 160 28 66 74 170 100 230 27 61 87 200 135 310 48 110 141 324
208 475 66 151 157 361 202 465 46 105 106 244 135 310 28 66 60 138 70 160
10 22 51 114 90 205 40 91 78 179 86 195 7 17 51 118 97 225 220 509 250 578
267 615 19 40 191 433 282 645 27 63 64 149 83 190 18 41 63 145 100 230 37
85 75 173 85 195 10 22 57 130 105 240 48 110 102 234 120 275 55 126 199 456
270 620 37 85 92 211 122 280 31 69 70 160 88 203 l33 77 -164 0 c-161 0 -165
0 -173 -22z"/>
<path d="M7737 33314 c3 -8 12 -13 20 -10 8 3 17 6 19 6 2 0 4 5 4 10 0 6 -11
10 -25 10 -18 0 -23 -4 -18 -16z"/>
<path d="M7840 33290 c0 -22 25 -27 50 -10 13 9 13 11 0 20 -25 17 -50 12 -50
-10z"/>
<path d="M7958 33251 c-10 -10 -18 -23 -18 -29 0 -19 37 -14 44 6 3 9 9 23 12
30 8 18 -18 14 -38 -7z"/>
<path d="M8057 33203 c-13 -12 -7 -33 8 -33 8 0 15 9 15 20 0 20 -11 26 -23
13z"/>
<path d="M8155 33139 c-10 -14 -1 -21 19 -13 9 3 13 10 10 15 -7 12 -21 11
-29 -2z"/>
<path d="M8264 33105 c-4 -9 -4 -18 -2 -21 9 -8 39 8 35 19 -6 18 -27 20 -33
2z"/>
<path d="M8368 33043 c7 -3 16 -2 19 1 4 3 -2 6 -13 5 -11 0 -14 -3 -6 -6z"/>
<path d="M8480 32999 c0 -5 5 -7 10 -4 6 3 10 8 10 11 0 2 -4 4 -10 4 -5 0
-10 -5 -10 -11z"/>
<path d="M1935 31850 c-4 -6 -4 -24 0 -40 4 -19 3 -30 -4 -30 -6 0 -11 -11
-11 -25 0 -16 -6 -25 -15 -25 -9 0 -15 -9 -15 -24 0 -13 -7 -26 -15 -30 -8 -3
-14 -15 -12 -28 1 -14 -3 -22 -10 -20 -7 1 -13 -5 -13 -13 0 -18 31 -20 48 -3
7 7 12 22 12 34 0 13 5 26 10 29 18 11 82 156 76 171 -6 16 -42 19 -51 4z"/>
<path d="M1823 31523 c-12 -27 -24 -58 -28 -70 -3 -13 -13 -23 -21 -23 -8 0
-14 -7 -14 -16 0 -10 7 -14 22 -12 18 2 24 12 29 42 3 21 12 41 18 46 13 8 33
80 22 80 -3 0 -16 -21 -28 -47z"/>
<path d="M1726 31315 c4 -8 7 -15 9 -15 1 0 8 7 15 15 10 13 9 15 -8 15 -15 0
-20 -5 -16 -15z"/>
<path d="M590 31260 c0 -5 5 -10 10 -10 6 0 10 5 10 10 0 6 -4 10 -10 10 -5 0
-10 -4 -10 -10z"/>
<path d="M1680 31191 c0 -17 2 -31 4 -31 8 0 13 51 5 56 -5 3 -9 -9 -9 -25z"/>
<path d="M1630 31080 c0 -5 5 -10 10 -10 6 0 10 5 10 10 0 6 -4 10 -10 10 -5
0 -10 -4 -10 -10z"/>
<path d="M1591 30968 c1 -37 2 -39 9 -18 12 36 12 60 0 60 -5 0 -10 -19 -9
-42z"/>
<path d="M1556 30901 c-4 -7 -5 -15 -2 -18 9 -9 19 4 14 18 -4 11 -6 11 -12 0z"/>
<path d="M4502 30307 c-26 -24 -76 -61 -112 -82 -111 -67 -174 -119 -336 -281
-101 -100 -269 -335 -312 -434 -11 -25 -33 -74 -50 -110 -80 -171 -134 -324
-152 -435 -6 -38 -16 -97 -23 -130 -19 -95 -14 -515 6 -587 10 -31 17 -67 17
-80 1 -12 8 -41 16 -63 9 -22 24 -80 34 -128 30 -142 60 -215 121 -300 16 -22
29 -47 29 -56 0 -9 13 -36 29 -59 16 -24 46 -77 67 -118 24 -47 59 -94 97
-131 32 -31 65 -70 74 -87 19 -37 64 -85 80 -86 6 0 26 -18 44 -41 17 -22 50
-52 72 -66 22 -14 56 -41 76 -61 20 -21 56 -49 81 -65 51 -31 102 -66 142 -96
14 -12 33 -21 41 -21 9 0 29 -11 45 -25 17 -14 38 -25 48 -25 11 0 37 -11 59
-25 22 -13 48 -25 58 -25 11 0 32 -9 47 -20 20 -14 37 -19 54 -14 18 4 34 -1
59 -20 25 -19 42 -25 59 -21 16 4 40 -1 67 -15 27 -15 52 -21 74 -17 17 2 49
-2 69 -10 39 -16 84 -19 318 -27 105 -3 161 0 201 10 31 8 85 14 120 14 70 0
148 16 249 49 36 12 101 34 145 48 44 14 107 38 140 53 33 15 106 47 162 70
56 24 117 56 135 72 l33 29 -45 -4 c-25 -3 -107 -21 -183 -41 -107 -28 -157
-36 -223 -36 -49 0 -109 -7 -140 -16 -45 -13 -64 -13 -110 -4 -43 9 -70 9
-118 -1 -56 -11 -65 -10 -89 6 -22 14 -38 16 -83 10 -44 -5 -60 -3 -82 11 -17
11 -42 17 -70 15 -27 -1 -53 4 -69 14 -13 9 -42 17 -63 17 -25 0 -51 9 -71 24
-22 16 -40 22 -55 18 -17 -4 -33 2 -55 20 -17 14 -43 26 -58 26 -15 0 -36 9
-46 20 -11 12 -31 20 -50 20 -21 0 -40 9 -55 25 -13 14 -32 25 -43 25 -11 0
-35 14 -54 30 -18 17 -40 30 -48 30 -7 0 -42 23 -76 50 -34 28 -68 50 -74 50
-7 0 -20 11 -29 25 -9 14 -39 39 -66 56 -27 17 -59 46 -71 66 -12 19 -39 47
-60 62 -39 29 -96 97 -123 148 -8 15 -38 53 -66 83 -57 62 -93 124 -140 238
-36 89 -56 129 -80 157 -9 11 -23 47 -30 80 -11 56 -22 87 -80 250 -14 41 -24
101 -30 191 -5 73 -14 150 -20 172 -6 23 -8 52 -5 64 3 13 8 59 10 103 6 127
22 258 34 288 6 16 11 43 11 60 0 55 65 256 124 387 77 169 183 343 265 435
64 73 116 137 131 165 8 15 30 40 48 55 18 15 37 36 43 46 8 16 6 19 -16 19
-17 0 -43 -16 -73 -43z"/>
<path d="M16699 30016 c-10 -20 -9 -37 0 -79 11 -45 11 -68 -4 -152 -9 -55
-28 -127 -42 -160 -38 -90 -122 -283 -148 -340 -13 -27 -38 -86 -55 -129 -18
-44 -36 -87 -41 -95 -8 -15 -73 -166 -195 -451 -25 -58 -51 -118 -59 -135 -27
-59 -98 -222 -140 -320 -24 -55 -75 -174 -115 -265 -39 -91 -105 -241 -145
-335 -77 -179 -214 -491 -246 -562 -10 -23 -19 -44 -19 -47 0 -2 -16 -39 -35
-80 -19 -42 -35 -78 -35 -81 0 -3 -27 -67 -61 -143 -77 -173 -80 -181 -119
-272 -17 -41 -38 -88 -45 -105 -32 -67 -175 -395 -175 -400 0 -3 -13 -33 -29
-67 -16 -35 -43 -97 -60 -138 -17 -41 -40 -93 -50 -115 -24 -52 -96 -218 -161
-370 -46 -106 -72 -168 -167 -385 -13 -30 -30 -68 -38 -85 -21 -47 -50 -114
-80 -185 -15 -36 -57 -135 -95 -220 -37 -85 -91 -209 -119 -275 -29 -66 -58
-133 -65 -150 -8 -16 -29 -64 -47 -105 -17 -41 -40 -93 -50 -115 -39 -91 -161
-370 -224 -515 -58 -134 -120 -278 -185 -425 -10 -22 -30 -69 -45 -105 -16
-36 -45 -102 -67 -148 -21 -45 -38 -85 -38 -89 0 -4 -30 -75 -66 -158 -37 -82
-82 -186 -101 -230 -19 -44 -43 -98 -53 -120 -10 -22 -45 -103 -78 -180 -33
-77 -84 -196 -115 -265 -54 -124 -134 -308 -249 -575 -56 -128 -137 -315 -193
-440 -12 -27 -50 -115 -85 -195 -80 -187 -78 -182 -145 -335 -32 -71 -80 -182
-107 -245 -27 -63 -56 -128 -63 -145 -13 -27 -42 -94 -202 -465 -25 -58 -53
-123 -63 -145 -10 -22 -32 -74 -50 -115 -18 -41 -39 -88 -46 -105 -11 -25 -95
-219 -139 -320 -14 -32 -106 -244 -135 -310 -10 -22 -41 -94 -69 -160 -29 -66
-58 -133 -66 -150 -8 -16 -38 -86 -68 -155 -30 -69 -84 -193 -121 -277 -36
-83 -66 -155 -66 -160 0 -9 -37 -66 -97 -151 -21 -29 -78 -89 -127 -133 -69
-62 -115 -92 -201 -134 -61 -30 -117 -55 -126 -55 -9 0 -49 -12 -90 -26 -65
-24 -91 -27 -219 -29 -110 -2 -150 1 -165 11 -11 8 -39 14 -62 14 -25 0 -56 8
-75 20 -18 11 -43 20 -54 20 -12 0 -32 8 -45 18 -13 10 -43 24 -65 30 -23 7
-47 19 -54 27 -7 8 -25 15 -39 15 -15 0 -37 9 -49 20 -12 11 -32 20 -45 20
-13 0 -38 11 -57 25 -19 14 -44 25 -56 25 -13 0 -40 11 -60 25 -20 14 -45 25
-54 25 -10 0 -29 9 -43 20 -14 11 -36 20 -49 20 -13 0 -39 11 -58 25 -19 14
-45 25 -58 25 -13 0 -35 9 -49 20 -14 11 -40 22 -58 26 -19 3 -41 15 -51 25
-22 25 -69 24 -94 -1 -25 -25 -25 -31 0 -77 11 -21 20 -54 20 -75 0 -20 4 -39
9 -42 5 -3 12 -18 15 -33 4 -16 13 -41 21 -58 28 -61 44 -102 72 -184 36 -106
103 -184 173 -200 24 -5 47 -17 52 -25 5 -9 22 -16 41 -16 21 0 43 -10 66 -30
18 -17 42 -30 52 -30 9 0 30 -11 46 -24 15 -13 41 -24 56 -24 15 0 38 -9 51
-21 13 -12 35 -21 53 -21 19 0 36 -7 44 -20 9 -12 29 -22 53 -25 24 -3 44 -12
53 -25 9 -13 25 -20 45 -20 18 0 42 -10 60 -25 20 -17 40 -24 60 -23 22 2 35
-4 46 -20 9 -14 25 -22 44 -22 18 0 43 -11 61 -26 20 -17 39 -24 54 -21 17 3
29 -3 43 -21 17 -21 25 -24 61 -18 31 5 49 2 79 -15 34 -19 44 -20 96 -11 35
6 68 6 82 1 59 -23 160 3 331 83 36 17 88 38 116 48 72 25 132 64 217 143 148
137 161 158 283 442 23 55 56 129 73 165 16 36 44 101 62 144 18 44 36 87 40
95 12 24 35 76 74 166 147 343 181 420 188 423 4 2 8 10 8 17 0 8 43 112 96
232 52 120 101 232 109 248 7 17 22 51 34 77 11 26 21 50 21 54 0 3 13 33 29
67 46 97 91 204 91 216 0 6 4 11 9 11 5 0 12 11 15 25 4 14 17 49 31 78 42 92
125 289 125 299 0 15 91 217 116 258 11 19 30 60 42 90 20 54 83 199 134 310
14 30 35 80 48 110 12 30 35 82 50 115 15 33 55 125 90 205 34 80 71 163 81
186 11 22 19 43 19 46 0 3 18 45 40 92 22 47 40 88 40 91 0 4 13 34 29 68 16
34 50 112 76 172 26 61 55 128 65 150 101 227 160 367 160 379 0 15 19 63 52
136 11 25 41 92 65 150 25 58 54 124 64 148 10 23 28 61 38 85 57 126 131 305
131 315 0 7 4 12 9 12 5 0 12 11 15 25 4 14 18 51 32 83 15 31 34 75 44 97 10
22 39 90 65 150 26 61 60 137 75 170 15 33 31 71 35 85 4 14 20 52 35 85 15
33 42 94 60 135 18 41 38 87 46 101 16 32 180 407 205 472 11 26 23 55 29 65
5 9 23 51 41 92 17 41 39 93 49 115 54 119 170 384 170 388 0 3 15 38 33 79
40 86 72 159 160 363 36 83 108 248 161 368 53 121 96 225 96 232 0 8 4 16 9
20 5 3 23 40 40 83 28 73 60 147 101 237 10 22 32 74 50 115 18 41 38 89 45
105 8 17 48 109 90 205 42 96 90 207 107 245 17 39 68 158 115 265 46 107 92
213 102 235 10 22 26 58 36 80 9 22 25 58 35 80 10 22 64 146 120 275 56 129
111 254 121 277 10 23 19 44 19 47 0 2 16 38 35 79 19 42 69 156 111 254 42
98 107 248 144 333 65 148 145 331 260 595 29 66 60 138 70 160 93 209 94 216
95 426 0 125 -4 194 -12 210 -15 30 -143 356 -143 364 0 20 -72 154 -93 174
l-26 24 -12 -27z"/>
<path d="M5815 29975 c-27 -8 -91 -18 -141 -24 -98 -10 -188 -42 -259 -91 -41
-28 -115 -106 -115 -121 0 -4 -10 -9 -22 -11 -13 -2 -21 -7 -18 -13 3 -5 10
-8 15 -6 6 2 37 8 70 12 33 5 73 14 88 21 49 19 265 8 302 -16 13 -9 44 -16
67 -16 24 0 52 -7 62 -15 11 -8 36 -15 56 -15 23 0 44 -8 61 -24 13 -12 41
-26 60 -30 19 -3 41 -15 49 -27 8 -11 33 -28 55 -38 22 -10 62 -36 88 -59 27
-23 52 -42 57 -42 11 0 60 -48 60 -58 0 -4 30 -38 65 -75 36 -37 81 -98 101
-135 19 -37 41 -78 49 -92 24 -44 93 -233 108 -300 26 -107 24 -322 -2 -465
-39 -207 -140 -410 -259 -521 -40 -37 -62 -65 -58 -72 35 -58 272 81 449 263
93 95 118 130 186 256 130 243 172 526 116 767 -24 101 -81 267 -110 322 -85
158 -128 221 -175 254 -27 19 -56 49 -65 65 -8 17 -39 46 -68 64 -29 19 -66
46 -81 61 -16 14 -39 26 -51 26 -12 0 -34 11 -49 25 -15 14 -36 25 -48 25 -11
0 -33 11 -50 25 -17 14 -42 25 -59 25 -16 0 -43 10 -59 21 -21 16 -37 20 -60
15 -21 -4 -44 0 -67 10 -26 13 -50 15 -103 10 -42 -4 -71 -2 -75 4 -9 14 -110
11 -170 -5z"/>
<path d="M7554 27572 c-5 -4 -34 -36 -63 -72 -29 -36 -75 -86 -102 -111 -58
-54 -64 -87 -21 -117 15 -11 38 -23 52 -27 14 -4 45 -18 70 -31 25 -13 49 -24
55 -24 5 0 29 -9 53 -20 23 -11 63 -29 90 -41 26 -11 68 -31 95 -45 26 -13 52
-24 59 -24 6 0 36 -12 67 -27 31 -14 74 -34 96 -44 22 -9 60 -26 85 -37 25
-11 76 -34 114 -51 37 -17 73 -31 80 -31 6 0 22 -9 36 -20 14 -11 31 -20 38
-20 16 0 82 -29 263 -114 31 -14 59 -26 63 -26 4 0 33 -11 64 -26 31 -14 71
-31 87 -38 17 -8 60 -28 97 -45 37 -17 73 -31 80 -31 7 0 24 -9 38 -20 14 -11
31 -20 38 -20 16 0 161 -64 265 -116 26 -13 55 -24 65 -24 9 0 28 -9 42 -20
14 -11 33 -20 44 -20 10 0 39 -11 65 -25 66 -35 158 -75 171 -75 7 0 24 -8 38
-19 15 -10 41 -22 59 -25 17 -4 37 -13 43 -21 6 -8 26 -17 43 -20 18 -4 39
-13 47 -20 8 -7 34 -18 56 -24 23 -6 53 -20 67 -31 14 -11 31 -20 39 -20 8 0
30 -9 51 -19 20 -10 49 -22 64 -26 15 -3 39 -15 54 -26 15 -10 34 -19 43 -19
20 0 66 -21 66 -31 0 -4 15 -11 33 -14 17 -4 46 -15 62 -25 17 -9 43 -21 59
-24 16 -4 41 -16 54 -27 14 -10 34 -19 46 -19 11 0 35 -9 51 -20 17 -11 37
-20 46 -20 9 0 33 -11 53 -25 20 -14 47 -25 60 -25 13 0 29 -7 36 -15 7 -9 32
-20 56 -26 23 -6 51 -19 61 -29 11 -10 35 -21 54 -25 19 -4 41 -13 49 -20 8
-7 28 -15 44 -19 15 -4 40 -15 54 -24 14 -9 42 -22 61 -27 69 -20 73 -69 16
-190 -13 -27 -33 -71 -45 -97 -11 -27 -29 -67 -39 -90 -11 -24 -34 -77 -51
-118 -18 -41 -36 -79 -40 -85 -4 -5 -20 -46 -35 -90 -15 -44 -35 -98 -45 -120
-10 -22 -46 -103 -80 -180 -34 -77 -69 -156 -77 -175 -9 -19 -24 -54 -34 -77
-11 -24 -27 -62 -38 -85 -10 -24 -29 -68 -43 -98 -14 -30 -37 -82 -51 -115
-78 -182 -150 -341 -158 -350 -5 -5 -9 -16 -9 -24 0 -13 -38 -100 -80 -181
-10 -19 -21 -46 -25 -60 -4 -14 -23 -57 -41 -97 -19 -40 -34 -75 -34 -78 0 -3
-16 -41 -36 -83 -20 -42 -40 -86 -44 -97 -8 -21 -41 -93 -84 -187 -14 -31 -26
-60 -26 -64 0 -4 -12 -32 -26 -63 -15 -31 -32 -69 -40 -86 -7 -16 -26 -59 -42
-95 -62 -135 -68 -150 -75 -184 -2 -8 -8 -20 -14 -28 -6 -7 -14 -27 -18 -43
-8 -35 -37 -95 -46 -95 -4 0 -9 -18 -13 -40 -3 -22 -10 -40 -15 -40 -5 0 -14
-20 -21 -45 -7 -24 -18 -50 -26 -56 -7 -6 -18 -27 -25 -47 -15 -47 -62 -156
-125 -287 -13 -28 -24 -55 -24 -61 0 -7 -7 -17 -15 -24 -8 -7 -15 -25 -15 -41
0 -15 -4 -30 -9 -34 -14 -8 -41 -65 -41 -84 0 -9 -15 -40 -34 -70 -19 -29 -42
-76 -51 -104 -9 -29 -27 -73 -40 -99 -13 -25 -22 -48 -20 -50 2 -2 -7 -17 -20
-32 -14 -16 -27 -44 -31 -62 -3 -19 -10 -34 -14 -34 -9 0 -30 -46 -30 -65 0
-8 -11 -25 -25 -39 -15 -15 -25 -36 -25 -54 0 -17 -6 -32 -15 -36 -8 -3 -15
-16 -15 -29 0 -14 -7 -30 -15 -37 -8 -7 -15 -20 -15 -29 0 -10 -6 -26 -14 -37
-8 -10 -12 -29 -9 -41 4 -17 1 -23 -11 -23 -9 0 -16 -8 -16 -20 0 -11 -4 -20
-10 -20 -5 0 -10 -12 -10 -27 0 -16 -4 -35 -10 -43 -7 -11 -11 -9 -19 13 -13
32 -6 54 27 85 18 17 25 35 26 68 2 24 8 50 14 56 7 7 12 20 12 30 0 10 5 18
10 18 6 0 10 18 10 40 0 29 4 40 15 40 9 0 15 9 15 24 0 13 5 26 11 28 6 2 14
27 17 56 4 43 2 52 -12 52 -9 0 -16 5 -16 10 0 6 -18 10 -40 10 -22 0 -40 -4
-40 -10 0 -5 -18 -10 -40 -10 -38 0 -40 -2 -40 -30 0 -28 -2 -30 -40 -30 -22
0 -40 -4 -40 -10 0 -5 -18 -10 -40 -10 -38 0 -40 -2 -40 -30 l0 -30 -80 0
c-47 0 -80 -4 -80 -10 0 -5 -18 -10 -40 -10 -38 0 -40 -2 -40 -30 0 -28 -2
-30 -40 -30 -22 0 -40 -4 -40 -10 0 -5 -18 -10 -40 -10 -38 0 -40 -2 -40 -30
l0 -30 -80 0 c-47 0 -80 -4 -80 -10 0 -5 -18 -10 -40 -10 -38 0 -40 -2 -40
-30 0 -28 -2 -30 -40 -30 -22 0 -40 -4 -40 -10 0 -6 -33 -10 -80 -10 l-80 0 0
-30 c0 -28 -2 -30 -40 -30 -22 0 -40 -4 -40 -10 0 -5 -18 -10 -40 -10 -38 0
-40 -2 -40 -30 0 -28 -2 -30 -40 -30 -22 0 -40 -4 -40 -10 0 -6 -33 -10 -80
-10 l-80 0 0 -30 c0 -28 -2 -30 -40 -30 -22 0 -40 -4 -40 -10 0 -5 -18 -10
-40 -10 -38 0 -40 -2 -40 -30 l0 -30 -80 0 c-47 0 -80 -4 -80 -10 0 -5 -18
-10 -40 -10 -38 0 -40 -2 -40 -30 0 -28 -2 -30 -40 -30 -22 0 -40 -4 -40 -10
0 -5 -18 -10 -40 -10 -38 0 -40 -2 -40 -30 l0 -30 -80 0 c-47 0 -80 -4 -80
-10 0 -5 -18 -10 -40 -10 -38 0 -40 -2 -40 -30 0 -28 -2 -30 -40 -30 -22 0
-40 -4 -40 -10 0 -5 -18 -10 -40 -10 -38 0 -40 -2 -40 -30 l0 -30 -80 0 c-47
0 -80 -4 -80 -10 0 -5 -18 -10 -40 -10 -38 0 -40 -2 -40 -30 0 -28 -2 -30 -40
-30 -22 0 -40 -4 -40 -10 0 -5 -18 -10 -40 -10 -38 0 -40 -2 -40 -30 l0 -30
-80 0 c-47 0 -80 -4 -80 -10 0 -5 -23 -10 -50 -10 -28 0 -59 -5 -69 -12 -29
-18 -48 -5 -43 31 4 30 3 31 -37 31 -31 0 -41 -4 -41 -16 0 -9 -7 -14 -17 -12
-13 3 -17 12 -16 32 2 28 2 28 -44 21 -56 -8 -83 -24 -83 -47 0 -20 39 -25 56
-8 8 8 20 7 40 0 20 -8 25 -13 15 -19 -8 -5 -11 -17 -6 -30 8 -25 21 -27 33
-5 6 10 19 14 38 12 23 -2 30 -9 34 -33 5 -27 9 -30 43 -30 30 0 43 -6 58 -27
17 -22 24 -26 43 -18 39 14 61 6 64 -25 3 -27 5 -27 48 -21 38 5 44 3 44 -12
0 -31 20 -42 66 -35 39 5 43 4 46 -18 3 -22 8 -24 49 -23 42 2 46 0 57 -28 9
-24 16 -29 39 -28 47 3 53 1 63 -26 9 -24 14 -25 50 -19 36 6 41 4 49 -18 11
-29 29 -38 53 -25 20 10 58 -9 58 -29 0 -14 6 -16 60 -17 28 -1 35 -6 40 -26
6 -22 11 -25 47 -22 34 3 43 -1 57 -23 15 -23 22 -26 54 -20 34 5 38 3 51 -26
12 -27 17 -30 43 -25 23 4 35 0 54 -19 17 -17 36 -25 60 -25 27 0 37 -5 46
-25 9 -21 18 -25 56 -25 35 0 45 -4 49 -19 6 -25 29 -34 53 -21 15 8 24 4 47
-20 20 -21 37 -30 60 -30 24 0 37 -7 50 -26 14 -21 22 -25 47 -20 25 5 35 1
58 -24 21 -23 33 -29 51 -25 24 6 57 -15 57 -36 0 -5 20 -9 44 -9 34 0 47 -5
58 -22 11 -17 24 -22 52 -21 30 1 39 -4 48 -23 9 -19 19 -24 49 -24 28 0 42
-6 57 -25 15 -18 29 -25 56 -25 25 0 40 -6 48 -20 9 -14 24 -20 46 -20 24 0
42 -9 64 -30 16 -17 34 -28 38 -25 14 9 32 -35 26 -61 -4 -14 -41 -102 -82
-197 -42 -95 -108 -244 -146 -332 -38 -88 -84 -194 -103 -235 -18 -41 -38 -95
-45 -120 -35 -132 -107 -178 -180 -116 -17 14 -42 26 -54 26 -12 0 -31 7 -42
15 -10 8 -37 20 -59 26 -21 6 -50 19 -63 30 -14 10 -37 19 -52 19 -15 0 -35 9
-45 20 -10 11 -27 20 -38 20 -10 0 -40 11 -66 24 -93 47 -136 66 -152 66 -8 0
-30 11 -49 25 -19 14 -44 25 -56 25 -13 0 -40 11 -60 25 -20 14 -45 25 -55 25
-10 0 -24 7 -32 15 -8 8 -33 19 -55 24 -23 5 -53 18 -68 30 -15 11 -39 21 -54
21 -15 0 -35 9 -45 20 -10 11 -30 20 -45 20 -14 0 -36 9 -47 20 -12 11 -40 24
-63 29 -23 5 -49 16 -59 25 -10 9 -26 16 -37 16 -11 0 -36 11 -56 25 -20 14
-46 25 -58 25 -12 0 -38 11 -58 25 -20 14 -43 25 -52 25 -8 0 -28 9 -45 20
-16 11 -40 20 -51 20 -12 0 -32 9 -46 19 -13 11 -40 22 -60 26 -20 4 -44 16
-54 26 -9 10 -29 19 -44 19 -15 0 -38 8 -51 19 -13 10 -38 22 -56 25 -17 4
-41 16 -54 27 -12 10 -32 19 -43 19 -12 0 -38 11 -58 25 -20 14 -48 25 -61 25
-14 0 -30 7 -37 15 -7 8 -31 20 -53 26 -23 6 -52 19 -65 30 -14 10 -35 19 -47
19 -12 0 -34 9 -48 21 -15 11 -42 23 -61 26 -20 3 -43 14 -52 24 -9 11 -28 19
-41 19 -13 0 -41 12 -63 26 -21 14 -43 23 -48 20 -5 -3 -26 5 -46 19 -20 14
-45 25 -54 25 -9 0 -35 12 -57 25 -22 14 -49 25 -60 25 -11 0 -31 9 -45 20
-14 11 -34 20 -46 20 -11 0 -35 11 -54 25 -19 14 -43 25 -54 25 -12 0 -39 12
-61 25 -22 14 -49 25 -61 25 -11 0 -29 9 -39 20 -10 11 -30 20 -45 20 -15 0
-38 8 -51 18 -13 10 -43 24 -65 30 -23 7 -47 19 -54 27 -7 8 -23 15 -37 15
-13 0 -41 11 -61 25 -20 14 -46 25 -58 25 -12 0 -33 9 -47 20 -14 11 -34 20
-44 20 -11 0 -34 11 -53 25 -19 14 -44 25 -56 25 -12 0 -32 8 -45 19 -13 10
-40 21 -60 25 -20 3 -44 15 -54 26 -10 11 -30 20 -45 20 -15 0 -38 8 -51 19
-13 10 -38 22 -56 25 -18 4 -42 15 -55 25 -13 10 -39 21 -59 25 -20 3 -44 15
-54 26 -10 11 -29 20 -43 20 -13 0 -36 8 -50 19 -15 10 -42 21 -60 24 -19 4
-45 16 -59 27 -14 11 -32 20 -41 20 -8 0 -29 9 -46 19 -17 10 -45 22 -62 25
-18 4 -40 16 -50 27 -9 10 -29 19 -44 19 -15 0 -38 8 -51 19 -13 10 -40 21
-60 25 -21 4 -43 13 -49 21 -7 9 -32 20 -56 26 -23 6 -50 20 -60 30 -9 10 -29
19 -43 19 -14 0 -37 9 -51 20 -14 11 -34 20 -45 20 -11 0 -38 11 -60 25 -22
13 -49 25 -60 25 -11 0 -31 9 -45 20 -14 11 -34 20 -46 20 -11 0 -35 11 -54
25 -19 14 -43 25 -54 25 -12 0 -34 9 -51 20 -16 11 -38 20 -48 20 -10 0 -35
11 -55 25 -20 14 -46 25 -57 25 -12 0 -36 11 -55 25 -19 14 -44 25 -56 25 -12
0 -33 9 -47 20 -14 11 -36 20 -49 20 -13 0 -34 9 -45 20 -12 11 -40 24 -63 29
-23 5 -49 16 -58 24 -9 8 -30 17 -46 21 -16 4 -41 16 -54 27 -14 10 -37 19
-52 19 -15 0 -35 9 -45 20 -10 11 -31 20 -46 20 -15 0 -41 11 -57 25 -17 14
-42 25 -57 25 -15 0 -40 11 -57 25 -16 14 -40 25 -54 25 -13 0 -33 9 -44 20
-11 11 -30 20 -43 20 -12 0 -40 11 -62 25 -22 13 -50 25 -61 25 -12 0 -33 9
-47 20 -14 11 -34 20 -44 20 -10 0 -35 11 -55 25 -20 14 -48 25 -61 25 -13 0
-32 9 -42 20 -10 11 -30 20 -45 20 -14 0 -41 11 -60 25 -19 14 -43 25 -55 25
-12 0 -36 11 -55 25 -19 14 -43 25 -54 25 -12 0 -32 9 -46 20 -14 11 -36 20
-50 20 -14 0 -36 9 -50 20 -14 11 -34 20 -45 20 -11 0 -37 11 -57 25 -20 14
-45 25 -55 25 -10 0 -35 11 -55 25 -20 14 -48 25 -61 25 -13 0 -32 9 -42 20
-10 11 -30 20 -45 20 -14 0 -41 11 -60 25 -19 14 -38 25 -42 25 -5 0 -7 -138
-6 -307 l3 -308 31 -3 c18 -2 40 -12 50 -23 9 -10 30 -19 46 -19 18 0 39 -10
54 -25 17 -17 36 -25 59 -25 24 0 39 -6 47 -20 9 -13 24 -20 46 -20 22 0 41
-8 58 -25 17 -17 36 -25 58 -25 25 0 38 -7 51 -26 14 -21 22 -25 46 -20 22 4
35 0 55 -19 16 -15 39 -25 56 -25 18 0 39 -10 54 -25 15 -15 36 -25 53 -25 15
0 36 -9 46 -20 10 -11 30 -20 45 -20 14 0 41 -11 60 -25 21 -15 41 -23 54 -19
15 3 29 -3 46 -20 13 -15 35 -26 50 -26 14 0 41 -11 60 -25 19 -14 46 -25 61
-25 17 0 32 -8 42 -24 12 -18 23 -23 45 -20 21 2 38 -4 56 -21 15 -14 39 -25
53 -25 14 0 39 -11 55 -26 18 -14 40 -24 53 -22 13 2 32 -5 43 -15 11 -11 40
-23 63 -28 23 -6 48 -17 54 -26 7 -9 25 -16 43 -15 22 0 37 -7 51 -24 13 -17
29 -24 52 -24 20 0 42 -9 57 -22 13 -13 37 -23 53 -24 17 -1 40 -11 53 -23 12
-12 36 -21 52 -21 20 0 39 -9 54 -25 14 -15 35 -25 52 -25 16 0 38 -9 50 -20
13 -12 36 -20 55 -20 24 0 37 -7 49 -25 13 -19 25 -25 54 -25 24 0 43 -7 55
-20 10 -11 30 -20 45 -20 15 0 36 -10 50 -25 16 -17 34 -25 56 -25 22 0 42 -9
59 -26 16 -16 34 -24 48 -22 13 1 36 -7 51 -20 16 -12 41 -22 56 -22 16 0 35
-10 48 -25 16 -18 32 -25 57 -25 24 0 39 -6 47 -20 9 -14 24 -20 50 -20 26 0
41 -6 52 -21 9 -13 29 -23 53 -26 21 -3 46 -14 56 -24 10 -11 31 -19 50 -19
23 0 38 -7 51 -25 14 -18 28 -25 53 -25 26 0 41 -7 56 -26 15 -20 27 -25 48
-22 21 3 35 -2 51 -19 14 -15 33 -23 56 -23 24 0 40 -7 52 -23 14 -18 26 -23
47 -20 21 3 34 -2 52 -21 16 -17 35 -26 56 -26 19 0 39 -8 50 -20 24 -27 50
-33 76 -20 17 10 25 8 43 -9 12 -12 33 -21 47 -21 14 0 40 -11 59 -25 19 -14
43 -25 55 -25 12 0 32 -11 45 -25 14 -15 35 -25 51 -25 16 0 44 -11 64 -24 20
-14 42 -23 49 -20 8 3 20 -1 27 -9 23 -22 56 -37 83 -37 15 0 30 -8 36 -20 7
-13 21 -20 41 -20 19 0 43 -10 61 -25 16 -14 40 -25 53 -25 13 0 41 -11 61
-25 20 -14 46 -25 58 -25 12 0 32 -9 46 -20 14 -11 36 -20 49 -20 14 0 34 -9
46 -20 12 -11 36 -22 53 -25 18 -2 44 -13 58 -24 15 -12 38 -21 51 -21 14 0
38 -11 55 -25 16 -14 42 -25 57 -25 15 0 36 -9 46 -20 10 -11 31 -20 46 -20
15 0 41 -11 57 -25 17 -14 42 -25 57 -25 15 0 40 -11 56 -25 16 -13 35 -22 42
-19 7 2 30 -7 51 -21 20 -14 46 -25 57 -25 12 0 32 -9 46 -20 14 -11 37 -20
50 -20 14 0 38 -11 55 -25 16 -14 40 -25 52 -25 12 0 38 -11 57 -25 19 -14 42
-24 51 -22 9 3 32 -6 49 -19 18 -13 44 -24 57 -24 13 0 37 -11 54 -25 16 -14
42 -25 57 -25 15 0 36 -9 46 -20 10 -11 30 -20 45 -20 14 0 41 -11 60 -25 19
-14 46 -25 60 -25 15 0 35 -9 45 -20 10 -11 28 -20 39 -20 12 0 39 -11 61 -25
22 -13 48 -25 58 -25 11 0 30 -9 44 -20 14 -11 36 -20 49 -20 12 0 36 -11 52
-25 17 -14 41 -25 54 -25 14 0 35 -11 48 -25 15 -16 34 -25 53 -25 16 0 42
-11 59 -25 16 -14 42 -25 57 -25 15 0 36 -9 46 -20 10 -11 31 -20 48 -20 16 0
42 -11 59 -25 16 -14 42 -25 57 -25 15 0 36 -9 46 -20 10 -11 31 -20 46 -20
15 0 34 -6 41 -13 21 -22 55 -37 80 -37 13 0 30 -9 38 -20 9 -12 26 -20 43
-20 16 0 43 -11 61 -25 18 -14 44 -25 58 -25 14 0 37 -11 52 -24 15 -12 40
-23 56 -24 16 0 38 -10 49 -21 12 -12 34 -21 49 -21 16 0 38 -9 50 -20 12 -11
36 -23 54 -27 18 -3 44 -14 57 -25 13 -10 36 -18 51 -18 15 0 36 -10 50 -25
30 -31 98 -35 123 -7 10 10 17 22 17 26 0 6 52 128 155 366 64 146 76 174 95
215 11 22 46 103 79 180 56 133 152 353 191 440 10 22 32 74 50 115 17 41 40
93 50 115 10 22 40 90 65 150 26 61 56 128 66 150 38 84 119 273 119 279 0 7
72 191 94 239 8 18 42 95 76 172 33 77 65 149 70 160 5 11 34 79 65 150 30 72
62 144 69 160 8 17 38 84 66 150 29 66 60 138 70 160 16 37 63 143 207 475 30
69 60 139 68 155 7 17 43 100 80 185 37 85 92 210 122 278 30 68 72 169 93
225 47 124 45 119 190 452 65 149 157 360 205 470 48 110 117 270 155 355 37
85 114 261 170 390 56 129 108 249 116 265 19 44 119 274 171 395 25 58 58
143 73 190 15 47 47 128 70 180 23 52 50 113 60 135 9 22 27 61 39 87 11 26
21 54 21 61 0 7 6 21 14 32 7 11 48 101 91 200 43 99 86 198 96 220 9 22 43
99 74 170 31 72 62 144 70 160 7 17 37 84 65 150 29 66 67 150 86 186 19 37
34 75 34 84 0 21 -65 85 -86 85 -8 0 -36 11 -62 25 -26 14 -56 25 -68 25 -12
0 -27 7 -34 15 -7 8 -31 20 -54 27 -22 6 -52 20 -65 30 -13 10 -34 18 -46 18
-12 0 -33 8 -46 19 -13 10 -41 21 -61 25 -21 4 -38 10 -38 15 0 10 -46 31 -69
31 -10 0 -24 7 -31 15 -7 8 -36 22 -65 31 -30 8 -59 21 -65 29 -7 8 -22 15
-34 15 -11 0 -39 11 -61 25 -22 13 -48 25 -58 25 -11 0 -30 9 -44 20 -14 11
-34 20 -44 20 -11 0 -43 12 -71 27 -29 14 -70 34 -90 45 -20 10 -45 18 -56 18
-10 0 -33 11 -52 25 -19 14 -42 25 -51 25 -9 0 -37 11 -60 25 -24 14 -54 25
-65 25 -12 0 -27 6 -33 14 -7 8 -27 18 -44 22 -18 4 -48 17 -67 30 -19 13 -41
24 -50 24 -15 0 -59 19 -151 66 -26 13 -53 24 -60 24 -8 0 -34 10 -59 21 -25
12 -70 33 -100 47 -30 14 -72 33 -92 43 -20 11 -45 19 -56 19 -10 0 -33 11
-52 25 -19 14 -40 25 -48 25 -8 0 -40 12 -71 26 -31 14 -76 35 -101 46 -25 11
-62 29 -82 39 -20 11 -45 19 -55 19 -10 0 -36 12 -58 25 -22 14 -48 25 -57 25
-9 0 -34 11 -54 25 -20 14 -46 25 -56 25 -11 0 -31 9 -45 20 -14 11 -35 20
-47 20 -11 0 -39 12 -61 25 -22 14 -50 25 -61 25 -12 0 -27 7 -34 15 -7 8 -31
20 -53 26 -23 6 -52 19 -65 30 -14 10 -35 19 -47 19 -12 0 -34 9 -48 20 -14
11 -34 20 -46 20 -11 0 -37 11 -57 25 -20 14 -46 25 -58 25 -12 0 -32 9 -46
20 -14 11 -31 20 -39 20 -8 0 -37 11 -65 24 -28 13 -76 36 -106 50 -30 14 -62
26 -70 26 -8 0 -26 9 -40 20 -14 11 -33 20 -42 20 -10 0 -42 12 -70 27 -115
58 -128 63 -143 63 -9 0 -33 11 -53 25 -37 25 -113 35 -138 17z m526 -7137 c0
-11 -11 -15 -40 -15 -29 0 -40 4 -40 15 0 11 11 15 40 15 29 0 40 -4 40 -15z
m1010 -74 c0 -6 -4 -13 -10 -16 -5 -3 -10 1 -10 9 0 9 5 16 10 16 6 0 10 -4
10 -9z m-1410 -86 c0 -11 -11 -15 -40 -15 -29 0 -40 4 -40 15 0 11 11 15 40
15 29 0 40 -4 40 -15z m-400 -160 c0 -11 -11 -15 -40 -15 -29 0 -40 4 -40 15
0 11 11 15 40 15 29 0 40 -4 40 -15z m1675 -75 c-3 -5 -10 -10 -16 -10 -5 0
-9 5 -9 10 0 6 7 10 16 10 8 0 12 -4 9 -10z m-2715 -240 c0 -5 -2 -10 -4 -10
-3 0 -8 5 -11 10 -3 6 -1 10 4 10 6 0 11 -4 11 -10z m-3 -76 c-3 -3 -12 -4
-19 -1 -8 3 -5 6 6 6 11 1 17 -2 13 -5z"/>
<path d="M6091 25690 c-24 -11 -69 -43 -100 -72 -31 -28 -85 -71 -121 -94 -75
-50 -210 -175 -210 -195 0 -23 13 -36 45 -43 17 -4 40 -17 52 -28 31 -29 67
-17 101 33 46 69 125 174 134 177 4 2 24 27 45 55 21 29 59 76 86 105 51 57
55 67 31 76 -19 7 -11 9 -63 -14z"/>
<path d="M7546 25373 c-4 -5 -65 -10 -134 -13 -120 -5 -133 -8 -237 -49 -60
-24 -132 -53 -160 -66 -58 -25 -145 -97 -160 -131 -6 -13 -21 -35 -34 -50 -28
-33 -21 -40 26 -26 62 18 165 43 217 52 38 7 57 6 82 -6 24 -12 47 -14 88 -9
44 6 62 4 81 -9 13 -9 44 -16 67 -16 27 0 52 -8 68 -20 14 -11 39 -20 56 -20
18 0 38 -8 49 -20 10 -11 31 -20 47 -20 21 0 38 -9 56 -30 17 -19 36 -30 54
-30 18 0 33 -9 47 -29 12 -16 45 -43 73 -59 33 -19 57 -42 67 -63 9 -18 40
-51 69 -74 53 -41 77 -72 102 -135 8 -19 17 -37 20 -40 4 -3 22 -35 42 -71 34
-63 49 -107 83 -234 9 -33 22 -76 29 -95 19 -52 14 -319 -8 -388 -9 -29 -16
-58 -15 -65 6 -29 -24 -121 -71 -221 -27 -59 -50 -111 -50 -115 0 -4 -18 -24
-39 -45 -22 -22 -45 -53 -52 -70 -7 -17 -16 -33 -20 -36 -15 -11 -13 -53 3
-64 14 -8 24 -5 50 21 18 18 51 39 74 46 121 43 311 212 411 367 31 47 66 101
79 120 12 19 43 98 67 175 43 133 60 234 59 340 0 22 -1 82 -1 133 0 64 -7
112 -20 150 -10 32 -26 82 -36 112 -48 151 -153 336 -206 365 -10 6 -32 31
-48 57 -16 25 -41 54 -56 64 -15 11 -43 33 -63 50 -21 17 -58 43 -83 57 -25
15 -56 38 -69 52 -15 16 -34 25 -54 25 -16 0 -40 9 -52 21 -12 11 -36 22 -54
24 -18 3 -43 14 -56 26 -16 15 -30 19 -51 15 -19 -4 -41 0 -68 15 -31 17 -50
20 -88 15 -34 -3 -58 -1 -78 9 -30 16 -91 20 -103 8z"/>
<path d="M9621 24334 c0 -11 3 -14 6 -6 3 7 2 16 -1 19 -3 4 -6 -2 -5 -13z"/>
<path d="M12100 24170 c0 -5 5 -10 10 -10 6 0 10 5 10 10 0 6 -4 10 -10 10 -5
0 -10 -4 -10 -10z"/>
<path d="M6646 23553 c-11 -11 -6 -23 9 -23 8 0 15 4 15 9 0 13 -16 22 -24 14z"/>
<path d="M9512 23528 c-7 -7 -12 -23 -12 -37 0 -20 13 -23 16 -3 0 4 4 15 9
25 9 22 2 30 -13 15z"/>
<path d="M9357 23184 c-9 -9 4 -35 14 -28 5 3 9 12 9 20 0 14 -12 19 -23 8z"/>
<path d="M7330 23130 c-17 -13 -20 -20 -10 -20 22 0 43 16 39 28 -3 7 -14 3
-29 -8z"/>
<path d="M7678 23102 c-35 -21 -36 -34 -2 -28 25 5 74 32 74 41 0 11 -47 3
-72 -13z"/>
<path d="M7443 23103 c-16 -6 -17 -33 -2 -33 19 0 50 21 44 31 -7 10 -22 11
-42 2z"/>
<path d="M12401 22984 c0 -11 3 -14 6 -6 3 7 2 16 -1 19 -3 4 -6 -2 -5 -13z"/>
<path d="M11585 22840 c3 -5 8 -10 11 -10 2 0 4 5 4 10 0 6 -5 10 -11 10 -5 0
-7 -4 -4 -10z"/>
<path d="M9083 22811 c-10 -15 -9 -20 1 -24 18 -7 26 1 26 25 0 23 -12 23 -27
-1z"/>
<path d="M8958 22689 c-22 -13 -23 -35 -2 -43 21 -8 44 11 44 35 0 21 -16 24
-42 8z"/>
<path d="M11492 22653 c2 -9 9 -18 16 -21 18 -6 15 25 -4 32 -11 4 -14 1 -12
-11z"/>
<path d="M12241 22574 c0 -11 3 -14 6 -6 3 7 2 16 -1 19 -3 4 -6 -2 -5 -13z"/>
<path d="M11434 22543 c4 -31 21 -42 29 -18 8 20 -2 45 -18 45 -9 0 -13 -10
-11 -27z"/>
<path d="M8750 22518 c-32 -21 -52 -39 -47 -45 5 -4 92 18 97 26 3 4 16 15 30
24 l24 17 -34 0 c-19 0 -51 -10 -70 -22z"/>
<path d="M11390 22493 c0 -13 5 -23 10 -23 13 0 13 11 0 30 -8 12 -10 11 -10
-7z"/>
<path d="M11390 22429 c0 -24 23 -21 28 4 2 10 -3 17 -12 17 -10 0 -16 -9 -16
-21z"/>
<path d="M12160 22424 c0 -17 -7 -37 -15 -44 -20 -17 -19 -27 6 -41 19 -10 20
-8 14 10 -4 12 -2 21 4 21 14 0 14 50 1 70 -7 11 -10 8 -10 -16z"/>
<path d="M11353 22348 c-18 -38 -23 -58 -14 -58 5 0 12 6 14 13 4 10 6 10 6 0
1 -7 6 -13 11 -13 6 0 10 18 10 40 0 45 -11 52 -27 18z"/>
<path d="M12080 22265 c0 -30 -4 -55 -10 -55 -15 0 -12 -77 3 -83 11 -4 14 7
14 41 1 82 6 117 16 123 11 8 1 29 -14 29 -5 0 -9 -25 -9 -55z"/>
<path d="M11295 22300 c-3 -5 -1 -10 4 -10 6 0 11 5 11 10 0 6 -2 10 -4 10 -3
0 -8 -4 -11 -10z"/>
<path d="M11306 22254 c-3 -9 -6 -29 -6 -45 0 -37 25 -39 34 -3 12 45 -13 87
-28 48z"/>
<path d="M12127 22263 c-4 -3 -7 -13 -7 -22 1 -13 3 -13 11 2 11 19 8 33 -4
20z"/>
<path d="M11249 22183 c0 -5 -1 -26 -2 -48 -2 -33 -6 -41 -24 -43 -18 -3 -23
-10 -23 -31 0 -44 -12 -94 -20 -81 -3 6 -13 8 -22 5 -12 -5 -14 -15 -7 -48 6
-32 4 -46 -7 -57 -13 -13 -16 -13 -24 0 -9 13 -15 -43 -13 -107 1 -7 -3 -13
-8 -13 -5 0 -9 7 -9 16 0 9 -6 14 -12 11 -8 -2 -13 -21 -13 -45 -1 -23 -6 -47
-13 -54 -9 -9 -12 -9 -12 2 0 9 -6 6 -15 -7 -9 -12 -15 -37 -14 -55 3 -39 -8
-78 -22 -78 -5 0 -9 -6 -9 -12 0 -7 -11 -35 -25 -63 -13 -27 -25 -57 -25 -66
0 -9 -9 -28 -20 -42 -11 -14 -20 -29 -19 -34 1 -4 -3 -21 -9 -36 -7 -16 -12
-33 -12 -38 0 -5 -4 -9 -10 -9 -5 0 -10 -5 -10 -11 0 -13 -84 -206 -136 -313
-13 -28 -24 -58 -24 -68 0 -10 -7 -21 -15 -24 -8 -4 -15 -13 -15 -21 0 -8 -12
-40 -26 -71 -14 -31 -32 -70 -39 -87 -57 -128 -73 -164 -85 -195 -7 -19 -19
-42 -27 -51 -7 -8 -13 -22 -13 -30 0 -9 -11 -39 -25 -67 -14 -29 -25 -56 -25
-61 0 -5 -6 -14 -14 -20 -8 -6 -19 -33 -26 -59 -6 -26 -17 -54 -24 -62 -8 -8
-17 -28 -20 -45 -4 -16 -13 -37 -21 -45 -7 -8 -18 -31 -24 -51 -6 -20 -20 -53
-31 -74 -11 -22 -20 -45 -20 -53 0 -8 -9 -25 -20 -39 -11 -14 -20 -33 -20 -42
0 -9 -11 -34 -25 -56 -13 -22 -25 -50 -25 -62 0 -12 -4 -24 -9 -28 -5 -3 -17
-27 -27 -53 -10 -26 -26 -58 -36 -71 -10 -13 -18 -34 -18 -46 0 -12 -9 -33
-19 -47 -11 -13 -23 -38 -27 -54 -7 -29 -17 -52 -67 -152 -15 -28 -27 -61 -27
-72 0 -11 -11 -43 -24 -72 -13 -29 -63 -143 -111 -253 -48 -110 -95 -218 -106
-240 -78 -168 -159 -362 -159 -382 0 -23 3 -24 38 -18 31 5 41 2 57 -15 18
-19 26 -21 86 -15 54 5 72 4 92 -10 21 -13 34 -14 74 -6 76 15 193 49 253 73
88 35 250 120 270 142 61 68 113 137 132 176 13 25 25 47 28 50 10 9 70 141
70 153 0 7 8 26 18 42 10 17 24 45 30 63 14 41 181 427 233 540 22 46 39 87
39 91 0 5 14 39 31 77 16 38 36 83 44 99 7 17 25 56 39 88 14 32 26 60 26 62
0 7 72 168 106 238 8 16 14 33 14 38 0 10 19 53 76 176 19 39 34 76 34 81 0 6
7 23 14 39 8 15 38 84 67 153 59 143 83 198 110 255 10 22 19 47 19 56 0 9 8
27 19 40 10 13 25 44 34 69 8 25 31 82 51 127 20 45 36 86 36 91 0 6 7 18 16
27 9 9 17 29 19 44 1 15 5 33 9 39 4 7 4 17 1 22 -3 6 -2 10 4 10 16 0 45 60
29 60 -7 1 -3 9 10 19 12 11 22 23 22 28 0 5 11 32 25 59 15 29 25 66 25 92 0
27 4 42 13 42 18 0 50 58 43 77 -4 9 1 21 12 29 11 7 27 30 37 50 14 30 15 38
4 45 -12 8 -12 11 1 18 8 5 18 7 22 5 4 -3 8 6 8 21 0 26 17 65 35 77 6 4 10
27 9 52 -1 35 3 45 18 49 21 6 40 49 25 58 -5 4 -7 22 -3 43 6 34 5 36 -19 36
-21 0 -25 -5 -25 -30 l0 -30 -80 0 c-47 0 -80 -4 -80 -10 0 -5 -18 -10 -40
-10 -38 0 -40 -2 -40 -30 0 -28 -2 -30 -40 -30 -22 0 -40 -4 -40 -10 0 -5 -18
-10 -40 -10 -38 0 -40 -2 -40 -30 l0 -30 -80 0 c-47 0 -80 -4 -80 -10 0 -5
-18 -10 -40 -10 -38 0 -40 -2 -40 -30 0 -28 -2 -30 -40 -30 -22 0 -40 -4 -40
-10 0 -5 -18 -10 -40 -10 -36 0 -40 -2 -40 -25 0 -15 -6 -25 -15 -25 -8 0 -17
11 -21 25 -8 34 3 75 21 75 8 0 15 7 15 15 0 8 5 15 10 15 6 0 10 18 10 40 0
29 4 40 15 40 11 0 15 13 15 54 0 39 4 55 15 60 10 4 15 -1 15 -16 0 -38 7
-15 14 45 5 47 4 57 -9 57 -8 0 -15 5 -15 10 0 11 -20 14 -21 3z m511 -308 c0
-11 -11 -15 -40 -15 -29 0 -40 4 -40 15 0 11 11 15 40 15 29 0 40 -4 40 -15z
m-615 -135 c3 -5 -1 -10 -9 -10 -9 0 -16 5 -16 10 0 6 4 10 9 10 6 0 13 -4 16
-10z"/>
<path d="M19660 21703 c69 -31 269 -187 257 -200 -2 -2 -20 4 -41 12 -209 87
-641 75 -1044 -31 -292 -76 -419 -140 -542 -271 -240 -257 -267 -655 -86
-1271 53 -179 70 -288 60 -381 -12 -116 -47 -181 -117 -218 -38 -19 -28 -30
81 -82 112 -53 207 -65 259 -32 40 25 96 139 148 297 l36 112 -49 49 c-207
207 -133 548 119 546 116 -1 219 -75 281 -201 30 -60 33 -75 33 -157 0 -78 -4
-98 -27 -145 -26 -54 -27 -59 -29 -260 l-2 -205 173 -3 172 -2 -7 27 c-72 285
-49 510 63 626 20 22 94 85 163 142 186 153 240 237 263 412 15 115 26 140 71
159 87 36 224 7 520 -109 270 -106 305 -114 353 -88 62 33 150 196 191 355 24
90 29 258 10 348 -20 97 -82 210 -159 288 -38 38 -73 70 -79 70 -5 0 3 -28 18
-62 33 -73 47 -129 55 -213 l6 -60 -23 65 c-60 166 -157 285 -316 388 -59 37
-192 102 -211 102 -6 0 0 -15 14 -33 56 -73 147 -318 134 -358 -2 -6 -17 8
-32 32 -39 58 -154 170 -225 219 -122 82 -262 129 -406 136 -55 2 -93 1 -85
-3z"/>
<path d="M9360 21239 c0 -5 5 -7 10 -4 6 3 10 8 10 11 0 2 -4 4 -10 4 -5 0
-10 -5 -10 -11z"/>
<path d="M5055 20170 c-18 -8 -18 -9 5 -9 14 0 34 4 45 9 18 8 18 9 -5 9 -14
0 -34 -4 -45 -9z"/>
<path d="M5172 20141 c-22 -19 -30 -51 -12 -51 5 0 13 8 19 17 5 10 13 15 17
11 4 -5 13 -3 21 3 10 9 10 15 2 25 -15 18 -22 18 -47 -5z"/>
<path d="M5263 20073 c-18 -7 -16 -23 2 -23 8 0 15 7 15 15 0 8 -1 15 -2 14
-2 0 -9 -3 -15 -6z"/>
<path d="M20022 20062 c-31 -5 -49 -44 -34 -77 l12 -25 213 0 c228 0 237 2
237 51 0 48 -16 52 -218 53 -103 1 -197 0 -210 -2z"/>
<path d="M5364 20025 c-18 -14 -18 -14 7 -15 16 0 26 5 26 15 0 19 -8 19 -33
0z"/>
<path d="M5466 19984 c-10 -25 2 -33 36 -23 32 9 47 0 48 -28 0 -21 19 -25 50
-11 32 14 40 28 15 28 -8 0 -15 5 -15 10 0 6 -13 10 -29 10 -17 0 -33 5 -36
10 -4 6 -10 8 -15 5 -5 -3 -11 -1 -15 5 -9 15 -32 12 -39 -6z"/>
<path d="M5633 19963 c9 -2 25 -2 35 0 9 3 1 5 -18 5 -19 0 -27 -2 -17 -5z"/>
<path d="M5680 19906 c0 -8 -5 -16 -12 -18 -6 -2 -9 -9 -5 -14 11 -18 97 7 97
28 0 14 -8 18 -40 18 -28 0 -40 -4 -40 -14z"/>
<path d="M20200 19837 c-46 -16 -80 -68 -80 -123 0 -34 7 -51 31 -78 52 -60
126 -61 186 -1 27 27 33 40 33 77 0 96 -81 156 -170 125z m88 -85 c4 -24 -32
-52 -58 -45 -36 10 -38 77 -2 86 24 6 56 -16 60 -41z"/>
<path d="M17720 19103 c-36 -8 -69 -20 -75 -27 -11 -14 -253 -48 -510 -71
-529 -49 -1030 -154 -1510 -319 -211 -72 -347 -129 -585 -243 -139 -68 -176
-88 -343 -189 -54 -32 -105 -64 -115 -69 -19 -11 -171 -114 -187 -127 -5 -4
-59 -45 -120 -90 -366 -272 -766 -697 -1028 -1093 -26 -38 -68 -93 -94 -120
-268 -283 -603 -723 -839 -1100 -226 -361 -368 -631 -519 -988 -47 -112 -105
-284 -105 -313 0 -19 51 -74 131 -140 54 -44 152 -106 233 -147 l84 -42 -58
-200 c-31 -110 -90 -312 -130 -450 -40 -137 -74 -259 -77 -270 -3 -11 -13 -47
-23 -80 -67 -225 -69 -242 -27 -270 18 -11 172 -58 312 -95 70 -19 364 -102
545 -155 107 -31 321 -93 475 -137 154 -44 287 -84 296 -89 10 -5 34 -77 69
-211 29 -112 60 -218 69 -237 19 -41 57 -71 102 -80 32 -6 35 -11 53 -73 l19
-65 -104 -167 c-57 -92 -128 -205 -156 -252 -29 -46 -72 -115 -96 -152 -24
-37 -106 -166 -182 -287 -76 -121 -152 -242 -170 -270 -17 -27 -40 -64 -50
-81 l-17 -31 -87 46 c-563 299 -1234 447 -1864 412 -460 -26 -917 -135 -1301
-310 -38 -17 -70 -31 -72 -31 -2 0 -4 87 -4 193 l0 192 61 20 c141 44 277 156
330 270 50 105 64 200 50 330 -11 108 -47 275 -90 425 -23 77 -125 389 -140
425 -5 11 -15 38 -24 60 -122 318 -246 615 -257 615 -4 0 -26 -48 -50 -107
-23 -60 -62 -153 -85 -208 -166 -392 -331 -908 -366 -1145 -16 -109 -7 -281
18 -340 67 -162 199 -279 371 -330 l42 -13 0 -219 c0 -198 2 -218 17 -218 24
0 9 -11 -67 -52 -106 -57 -248 -146 -365 -232 -99 -72 -144 -107 -255 -200
-19 -17 -107 -101 -194 -189 -157 -157 -160 -159 -235 -184 -119 -40 -235
-103 -189 -103 19 0 96 -51 102 -67 3 -7 -41 -82 -98 -165 -56 -84 -116 -177
-132 -207 -18 -34 -30 -48 -32 -38 -3 14 -16 17 -67 17 -81 0 -95 13 -95 85 0
64 13 75 84 75 25 0 46 2 46 3 0 2 -8 19 -17 38 -20 39 -22 124 -4 157 11 20
7 30 -32 85 -52 71 -167 185 -248 244 -117 86 -250 147 -408 188 -86 22 -288
34 -381 23 -47 -6 -124 -6 -205 1 -71 5 -141 7 -155 5 -22 -5 -32 4 -75 62
-147 201 -412 387 -670 472 -191 63 -285 72 -715 68 -315 -3 -354 -5 -444 -25
-289 -66 -503 -181 -702 -376 -204 -201 -325 -413 -384 -675 -29 -125 -26
-119 -52 -124 -85 -16 -190 -27 -205 -21 -52 20 -141 27 -352 30 l-234 2 -46
54 c-53 61 -163 169 -173 169 -3 0 -13 6 -20 13 -28 28 -137 88 -219 122 -152
62 -199 68 -534 68 -276 1 -307 -1 -385 -21 -104 -26 -187 -59 -271 -108 -66
-38 -189 -132 -189 -144 0 -4 13 -10 29 -13 38 -8 100 -63 117 -104 19 -45 17
-100 -6 -150 l-19 -43 48 0 c70 0 83 -13 79 -85 l-3 -60 -78 -3 -77 -3 0 -89
0 -90 615 0 615 0 0 90 0 89 -78 3 -77 3 -3 60 c-4 72 9 85 80 85 26 0 48 1
48 3 0 1 -9 20 -20 42 -50 98 5 219 115 250 158 45 287 -117 210 -265 l-16
-30 49 0 c71 0 84 -13 80 -85 l-3 -60 -77 -3 -78 -3 0 -89 0 -90 615 0 615 0
0 85 0 85 -47 1 c-104 2 -112 6 -120 68 -4 28 -1 48 11 66 14 22 24 25 71 25
l55 0 -20 40 c-56 110 10 239 137 263 50 10 126 -18 162 -58 51 -59 64 -161
26 -212 -22 -28 -18 -33 31 -33 71 0 84 -12 84 -73 0 -29 -4 -57 -8 -64 -4 -7
-38 -14 -77 -16 l-70 -4 -3 -87 -3 -86 616 0 616 0 -3 88 -3 87 -69 1 c-81 1
-96 14 -96 79 0 56 22 75 87 75 l51 0 -19 37 c-25 48 -24 116 1 168 70 145
287 126 336 -29 17 -55 15 -76 -21 -158 -6 -16 -1 -18 40 -18 72 0 85 -11 85
-73 0 -29 -4 -57 -8 -64 -4 -7 -37 -13 -77 -15 l-70 -3 -3 -87 -3 -88 611 0
610 0 0 88 0 89 -67 2 c-37 1 -73 7 -80 13 -19 15 -17 103 3 122 10 11 34 16
69 16 l53 0 -19 37 c-62 122 25 265 161 265 133 0 218 -132 165 -259 -8 -19
-15 -37 -15 -39 0 -2 22 -4 49 -4 64 0 81 -17 81 -78 0 -26 -4 -53 -8 -59 -5
-7 -37 -14 -77 -16 l-70 -4 -3 -86 -3 -87 575 0 576 0 -22 -45 -22 -45 -553 0
-553 0 0 -255 0 -256 455 3 c502 3 468 8 445 -58 l-10 -29 -445 3 -445 2 0
-144 0 -144 411 -7 411 -8 -6 -46 c-29 -197 -37 -293 -43 -481 -10 -359 17
-606 112 -1005 49 -206 162 -510 265 -715 16 -33 30 -62 30 -65 0 -3 -1807 -5
-4015 -5 l-4015 0 0 -2775 0 -2775 16665 0 16665 0 0 2775 0 2775 -4180 0
c-2299 0 -4180 2 -4180 5 0 3 13 32 29 63 157 305 294 754 350 1147 43 306 35
784 -18 1068 l-8 47 123 0 124 0 0 145 0 145 -159 0 -158 0 -7 31 c-3 17 -6
35 -6 40 0 5 74 9 165 9 l165 0 0 255 0 255 -267 2 -266 3 -18 43 -18 42 284
0 285 0 0 90 0 90 -68 0 c-40 0 -73 5 -80 12 -18 18 -15 103 4 122 10 11 34
16 69 16 l54 0 -20 34 c-27 46 -27 121 0 174 51 100 198 127 280 50 62 -58 79
-148 42 -221 l-19 -37 53 0 c66 0 85 -16 85 -71 0 -67 -12 -79 -80 -79 -87 0
-85 2 -82 -95 l3 -85 610 0 609 0 0 85 0 85 -47 1 c-107 2 -113 6 -113 86 0
61 13 73 84 73 51 0 54 4 29 39 -10 15 -17 45 -17 82 -1 49 4 64 29 100 17 23
45 50 63 60 19 9 36 19 38 22 7 7 -113 155 -173 214 -246 239 -608 367 -949
333 -81 -8 -140 -8 -208 -1 -52 6 -125 11 -160 11 -64 0 -66 1 -82 32 -9 18
-71 87 -138 153 -234 233 -478 364 -792 425 -87 16 -139 20 -273 18 -144 -2
-295 0 -421 5 l-35 2 -3 202 -2 201 -33 -9 c-42 -12 -119 -12 -151 1 l-26 10
0 -210 0 -209 -37 -7 c-86 -14 -203 -47 -284 -80 -48 -19 -92 -34 -99 -34 -6
0 -62 20 -123 45 -275 109 -564 181 -912 227 -158 21 -696 18 -865 -5 -175
-23 -403 -70 -547 -111 -63 -18 -116 -30 -118 -26 -3 4 -36 90 -74 191 -38
101 -83 220 -100 265 -26 67 -30 86 -21 108 5 15 10 40 10 56 0 38 -344 1067
-368 1100 -24 32 -78 60 -118 60 -29 0 -32 3 -49 63 -41 142 -55 191 -110 377
-74 252 -74 255 -75 324 0 41 6 69 21 95 36 65 40 66 290 69 l227 3 22 -30
c73 -104 251 -150 384 -101 166 63 249 254 185 426 -28 74 -101 154 -172 185
-71 32 -200 33 -269 2 -103 -47 -179 -154 -194 -270 l-6 -54 -29 27 c-16 15
-41 45 -56 67 l-28 40 -155 -6 c-204 -7 -281 -30 -368 -111 -95 -88 -135 -192
-135 -351 1 -117 1 -120 187 -748 28 -95 31 -117 16 -117 -5 0 -21 -17 -35
-37 -40 -59 -34 -108 35 -315 33 -99 60 -182 60 -184 0 -2 -137 -4 -305 -4
l-305 0 71 67 c207 196 285 442 244 778 -32 273 -103 553 -252 999 l-77 229
-210 -6 c-115 -4 -334 -7 -486 -7 l-277 0 -64 -190 c-39 -118 -68 -190 -76
-190 -7 0 -41 12 -76 26 -34 14 -114 45 -177 69 -63 24 -162 62 -220 85 -58
22 -157 60 -220 84 -170 65 -302 116 -325 126 -11 5 -56 22 -100 39 -44 17
-120 46 -170 65 -49 19 -151 58 -225 86 -74 28 -169 64 -210 80 -124 48 -289
109 -395 147 -55 19 -104 39 -108 43 -5 4 38 70 95 146 260 347 485 743 666
1169 l51 120 -14 185 c-27 365 -48 691 -43 696 3 2 275 35 604 72 l599 67 5
30 c5 30 5 30 104 42 54 7 102 15 105 18 22 23 38 544 21 700 -6 61 -14 172
-17 247 l-6 137 38 66 c36 64 37 70 30 134 -23 236 -76 537 -146 827 -37 153
-27 145 -149 117z m-1532 -3410 c-150 -272 -352 -580 -506 -773 -115 -145
-178 -219 -189 -224 -23 -10 306 500 454 702 15 21 45 62 67 92 64 87 198 260
202 260 2 0 -10 -26 -28 -57z m4489 -1989 c46 -35 66 -70 71 -126 5 -68 -14
-117 -63 -153 -108 -83 -275 -1 -275 135 0 53 39 121 86 148 49 29 139 27 181
-4z m-7218 -593 c113 -33 271 -78 351 -101 80 -23 151 -47 158 -53 13 -11 12
-95 -1 -127 -4 -8 -19 -58 -34 -110 -43 -144 -20 -141 -375 -40 -448 127 -447
127 -448 175 0 11 16 78 36 150 36 128 56 165 91 165 9 0 108 -27 222 -59z
m2611 -766 c366 -56 1058 -145 1258 -161 45 -4 81 -10 80 -15 -4 -9 -108 -120
-246 -262 l-105 -107 -561 2 -560 3 -23 75 c-13 41 -28 118 -34 170 -6 52 -21
146 -35 208 -13 63 -24 115 -24 118 0 7 19 5 250 -31z m-1825 -290 c72 -21
138 -41 148 -46 9 -6 40 -55 67 -109 l50 -100 -225 0 c-223 0 -225 0 -225 21
0 12 10 37 21 56 24 38 28 117 10 166 -16 42 -14 60 7 54 9 -3 76 -22 147 -42z
m443 -608 c10 -12 45 -79 267 -512 59 -115 111 -214 115 -220 4 -5 76 -145
160 -310 84 -165 156 -304 161 -309 19 -21 6 -45 -66 -116 -41 -41 -71 -77
-67 -81 4 -4 198 -71 432 -150 234 -78 431 -145 438 -148 9 -5 4 -18 -19 -49
-29 -40 -30 -42 -10 -42 21 0 21 0 -3 -49 -18 -34 -33 -51 -52 -55 -14 -4 -70
-27 -122 -52 -53 -24 -137 -59 -186 -77 -83 -29 -101 -32 -211 -32 -102 0
-127 3 -167 22 -52 24 -142 102 -163 143 -8 14 -29 43 -48 64 -29 34 -36 37
-54 27 -28 -14 -58 -95 -91 -241 -23 -103 -26 -135 -26 -310 1 -143 5 -207 15
-240 l15 -45 1248 -3 1249 -2 -6 51 c-8 62 -23 41 263 349 8 9 49 54 90 100
41 47 84 94 95 105 11 11 61 65 110 120 49 55 108 120 131 145 23 25 151 166
285 315 387 427 854 941 950 1045 94 103 91 99 224 245 201 220 229 250 232
250 2 0 17 -40 34 -90 16 -49 39 -112 49 -140 26 -65 71 -96 138 -98 l50 -2
60 -160 c33 -88 78 -205 99 -259 29 -75 35 -100 25 -104 -40 -13 -332 -167
-422 -223 -990 -609 -1618 -1638 -1711 -2804 -14 -181 -7 -528 15 -701 51
-399 159 -768 326 -1120 33 -70 60 -129 60 -131 0 -1 -603 -3 -1340 -3 -1210
0 -1346 2 -1399 16 l-59 17 42 51 c22 28 54 72 71 98 31 50 57 65 160 93 113
32 167 72 204 155 17 37 21 66 21 157 0 126 5 143 67 225 63 84 83 132 83 208
0 77 -24 136 -94 224 -25 32 -48 68 -51 80 -2 12 -6 73 -8 136 -2 87 -7 124
-21 150 -23 45 -63 88 -99 106 l-28 15 59 67 c85 96 410 451 510 557 47 50 92
101 101 115 17 27 187 215 261 290 65 65 220 243 220 252 0 4 -100 8 -221 8
l-221 0 -67 -67 -66 -67 -7 45 c-5 29 -17 52 -33 67 l-26 22 -710 0 -710 0
-16 -37 c-8 -21 -33 -76 -55 -123 -44 -94 -60 -129 -78 -177 -15 -39 -26 -35
-35 10 -9 43 -73 291 -90 347 -28 88 -73 246 -93 325 -11 44 -32 118 -47 165
-14 47 -37 123 -49 170 -13 47 -58 209 -101 360 -43 151 -88 313 -100 360 -13
47 -57 207 -98 355 -42 149 -128 459 -193 690 -64 231 -119 426 -121 433 -7
18 511 17 525 -1z m2030 2 c-4 -10 -93 -105 -291 -312 -99 -103 -186 -195
-193 -205 -18 -24 -28 -9 -52 73 -11 39 -43 147 -72 240 -29 94 -55 178 -57
187 -4 13 3 17 34 20 73 6 633 3 631 -3z m2656 -96 c-49 -54 -93 -103 -99
-109 -5 -6 -46 -51 -91 -100 -45 -49 -100 -111 -124 -138 -23 -27 -126 -142
-228 -255 -445 -490 -598 -659 -646 -712 -28 -30 -154 -169 -281 -309 -505
-558 -567 -625 -578 -623 -7 1 -49 16 -95 32 -46 17 -156 51 -245 76 -89 25
-191 55 -227 65 -36 11 -105 29 -153 41 -73 18 -87 25 -81 38 28 69 54 161 54
190 0 20 -7 74 -17 120 l-16 84 39 35 c51 46 133 121 214 196 36 34 117 108
180 166 63 58 144 132 180 166 211 196 795 737 846 783 32 30 109 100 169 156
233 217 201 194 278 195 l67 0 0 -184 0 -184 33 -5 c17 -3 59 -9 92 -12 33 -4
68 -9 78 -11 16 -5 17 9 17 195 l0 201 358 2 c196 2 359 2 361 1 2 -1 -36 -46
-85 -100z m-5445 -339 c22 -76 63 -222 91 -324 55 -196 86 -307 174 -620 53
-189 130 -466 166 -600 71 -259 142 -520 145 -534 7 -37 19 -72 26 -82 5 -5
17 -48 28 -95 22 -94 88 -337 121 -444 12 -38 32 -110 45 -160 35 -135 53
-200 85 -306 17 -53 30 -103 30 -111 0 -8 -11 -36 -24 -63 l-23 -50 -7 40
c-33 221 -59 362 -76 425 -12 41 -27 100 -34 130 -30 126 -123 380 -182 500
-23 47 -53 110 -67 140 -29 67 -111 213 -135 240 -9 11 -29 43 -43 70 -14 28
-40 67 -57 88 -17 20 -79 102 -138 182 -168 228 -489 539 -758 733 -18 13 -8
32 190 346 115 183 252 401 304 486 52 85 96 153 97 151 1 -1 20 -65 42 -142z
m-2494 -799 c291 -16 651 -103 945 -227 118 -50 266 -124 274 -137 6 -9 -86
-164 -110 -186 -6 -5 -44 -63 -85 -128 -41 -66 -93 -149 -116 -185 -23 -37
-46 -74 -50 -82 -3 -8 -14 -26 -24 -40 -9 -14 -66 -105 -125 -202 -174 -283
-237 -381 -249 -385 -6 -1 -28 24 -50 57 l-40 60 -293 0 -292 0 2 -252 3 -253
218 1 c119 0 217 -1 217 -4 0 -4 -38 -71 -47 -81 -2 -3 -90 -5 -196 -5 l-192
-1 -3 -92 -3 -93 -33 0 c-19 0 -70 -7 -113 -15 -43 -8 -79 -15 -80 -15 -2 0
-3 50 -3 110 l0 110 -615 0 -615 0 0 -150 0 -151 530 3 c292 2 530 1 530 -2 0
-3 -13 -13 -28 -22 -16 -9 -50 -39 -77 -65 -249 -248 -300 -613 -130 -920 48
-85 176 -214 265 -266 146 -84 360 -119 512 -83 71 16 107 12 254 -30 28 -8
66 -16 85 -18 19 -2 47 -8 63 -15 16 -6 50 -14 75 -17 25 -3 55 -9 66 -14 45
-19 90 -30 119 -30 18 0 36 -4 42 -9 13 -12 103 -33 114 -26 5 3 20 -1 32 -9
24 -15 89 -30 123 -28 11 1 26 -5 35 -12 8 -8 47 -21 85 -29 39 -9 88 -20 110
-26 22 -6 55 -11 73 -11 17 0 32 -4 32 -9 0 -5 35 -16 78 -24 76 -15 158 -35
258 -64 28 -7 66 -15 85 -17 19 -2 48 -8 64 -15 17 -7 53 -16 80 -20 28 -4 56
-10 63 -14 6 -5 42 -14 79 -22 80 -16 178 -40 249 -60 28 -8 69 -15 92 -15 22
0 43 -4 46 -8 7 -12 114 -35 126 -27 16 10 12 -1 -29 -83 -291 -575 -831
-1084 -1430 -1348 -396 -174 -789 -257 -1221 -256 -779 1 -1509 297 -2072 840
-482 466 -783 1063 -883 1752 -23 159 -28 525 -10 695 74 671 352 1272 811
1753 522 548 1229 876 1984 921 132 8 190 7 395 -4z m10503 4 c960 -52 1812
-542 2342 -1345 248 -377 400 -789 467 -1264 24 -171 24 -564 -1 -740 -50
-368 -146 -676 -308 -992 -143 -279 -320 -520 -548 -748 -491 -492 -1104 -783
-1810 -861 -135 -15 -455 -15 -590 0 -692 76 -1292 355 -1781 828 -517 500
-832 1160 -899 1888 -22 238 -7 546 39 796 151 818 650 1551 1356 1991 99 62
336 188 352 188 6 0 27 -46 48 -102 21 -57 53 -143 71 -193 19 -49 34 -95 34
-100 0 -6 -37 -35 -82 -65 -97 -63 -207 -170 -265 -255 -75 -111 -137 -256
-150 -351 l-6 -44 390 0 389 0 12 -33 c7 -18 12 -39 12 -45 0 -9 -109 -12
-440 -12 -484 0 -451 4 -552 -64 l-47 -31 -1 -202 0 -202 33 -6 c17 -3 296 -5
619 -3 l587 3 42 -110 c23 -60 50 -132 61 -160 11 -27 26 -70 34 -94 13 -42
13 -44 -11 -63 -38 -30 -115 -114 -150 -163 -110 -153 -155 -404 -110 -598 22
-96 95 -242 153 -309 89 -103 207 -182 337 -225 71 -24 95 -27 220 -28 132 0
145 2 228 31 125 45 190 87 288 185 68 69 94 103 127 172 60 121 82 216 82
347 0 207 -68 377 -205 516 -44 44 -93 90 -110 102 l-30 21 248 1 247 0 0 139
c0 120 -2 140 -17 145 -9 4 -245 6 -526 6 -280 -1 -511 0 -513 2 -10 11 -33
78 -27 78 5 1 242 0 529 0 286 0 528 2 537 6 15 5 17 31 17 255 l0 249 -615 0
-614 0 -3 -62 -3 -63 -137 366 c-76 201 -138 372 -138 380 0 19 44 65 78 82
46 24 89 27 140 12 111 -33 161 -160 106 -267 l-15 -28 49 0 c71 0 84 -13 80
-85 l-3 -60 -77 -3 -78 -3 0 -89 0 -90 615 0 615 0 0 88 0 89 -72 2 c-40 1
-77 7 -83 12 -15 15 -12 103 4 122 9 12 29 17 66 17 l53 0 -19 37 c-36 70 -22
153 34 211 57 59 143 70 224 29 80 -42 115 -168 67 -244 -20 -32 -19 -33 35
-33 66 0 81 -16 81 -85 0 -66 -12 -75 -99 -75 l-61 0 0 -85 0 -85 570 0 c314
0 570 2 570 5 0 3 -30 44 -67 92 -73 94 -322 350 -413 425 -285 232 -614 411
-948 513 l-43 13 -20 -40 c-73 -142 -129 -325 -148 -476 -5 -41 -11 -75 -13
-77 -11 -10 -138 -55 -155 -55 -11 0 -32 15 -46 33 -125 156 -274 260 -462
320 -119 39 -196 49 -335 46 -69 -1 -172 -2 -230 -1 l-105 2 -42 113 c-23 61
-58 150 -76 197 -57 140 -65 123 75 160 218 58 453 93 678 103 30 1 64 3 75 3
11 1 94 -2 183 -7z m-8878 -634 c588 -467 991 -1151 1100 -1865 6 -41 13 -84
15 -96 4 -20 1 -20 -75 -18 -43 1 -84 5 -89 8 -5 4 -40 8 -78 11 -37 3 -115
10 -173 15 -58 6 -130 12 -160 15 -30 2 -102 9 -160 14 -58 6 -123 11 -145 12
-22 1 -67 5 -100 10 -55 8 -268 27 -390 35 -27 2 -97 9 -155 15 -58 5 -130 12
-160 14 -30 3 -104 9 -165 15 -60 6 -132 13 -160 15 -27 2 -99 9 -160 15 -60
6 -131 12 -157 12 -52 0 -56 6 -32 43 15 23 23 25 85 25 l68 0 10 38 c16 59
30 153 32 207 2 33 10 62 23 81 50 73 124 186 166 253 25 40 77 123 115 185
39 61 81 133 94 159 13 26 27 47 31 47 4 0 10 8 12 18 6 20 272 448 292 468 8
8 31 41 51 74 20 33 40 58 45 55 4 -3 6 3 4 12 -5 21 92 183 109 183 7 0 55
-34 107 -75z m3498 -1337 c-23 -29 -77 -86 -118 -128 -41 -41 -130 -138 -197
-215 -122 -139 -214 -242 -324 -363 l-58 -64 -33 38 c-18 21 -32 43 -31 48 2
12 90 221 172 411 29 66 64 152 78 190 14 39 34 85 45 103 l20 32 245 0 245 0
-44 -52z m-4638 -560 c52 -5 122 -11 155 -14 33 -2 107 -9 165 -15 58 -6 130
-12 160 -14 30 -2 105 -9 165 -15 61 -6 133 -12 160 -14 28 -2 97 -9 155 -15
125 -13 201 -20 295 -27 39 -3 115 -10 170 -15 55 -5 127 -12 160 -14 33 -3
105 -10 160 -16 108 -11 168 -16 446 -36 l76 -5 7 -60 c13 -124 1 -486 -16
-504 -3 -3 -60 4 -127 15 -116 20 -741 116 -1076 166 -204 30 -721 109 -890
135 -71 11 -133 20 -137 20 -5 0 -8 20 -8 43 0 92 -57 260 -120 353 -35 52
-37 59 -12 49 9 -4 60 -12 112 -17z m-564 -161 c184 -94 231 -344 92 -501 -56
-65 -125 -98 -214 -104 -103 -7 -163 16 -235 87 -177 177 -108 464 131 542 50
17 172 4 226 -24z m10562 4 c65 -33 118 -87 149 -149 24 -49 28 -69 28 -142 0
-99 -20 -152 -81 -220 -80 -89 -222 -124 -335 -84 -66 24 -143 92 -176 158
-38 74 -43 180 -13 261 27 73 112 161 180 187 64 25 190 19 248 -11z m-6458
-386 l0 -125 -72 0 c-40 0 -90 -3 -110 -6 l-38 -7 0 126 c0 146 -12 133 133
136 l87 1 0 -125z m260 38 c14 -9 49 -38 78 -65 30 -26 60 -48 67 -48 18 0 89
-82 124 -144 62 -108 108 -298 97 -400 -12 -104 -35 -187 -76 -271 -39 -80
-103 -167 -143 -194 -12 -8 -38 -27 -57 -43 -19 -16 -40 -33 -46 -38 -6 -4
-46 -24 -87 -44 -100 -46 -260 -80 -342 -71 -103 11 -95 0 -95 142 l0 125 28
-7 c52 -15 193 -14 246 2 83 24 113 42 175 104 70 69 114 143 136 224 48 186
-20 365 -192 502 l-23 18 31 113 c17 61 37 112 43 112 6 0 23 -8 36 -17z
m-777 -248 l98 -66 -25 -32 c-30 -40 -66 -112 -66 -131 0 -22 -17 -28 -41 -16
-12 7 -59 36 -105 66 -82 54 -83 55 -72 82 24 55 91 162 102 162 6 0 55 -29
109 -65z m-2605 -80 c235 -35 589 -89 787 -119 297 -45 779 -117 961 -143 l41
-5 -9 -42 c-28 -127 -136 -446 -167 -496 -9 -12 -16 -12 -60 4 -27 9 -68 19
-90 21 -23 1 -47 7 -54 13 -15 12 -43 21 -104 32 -26 5 -101 22 -166 39 -65
17 -131 31 -147 31 -16 0 -31 4 -34 9 -3 5 -36 14 -73 21 -38 6 -77 16 -88 21
-24 11 -133 35 -225 50 -36 6 -72 15 -80 19 -9 4 -43 13 -75 19 -33 7 -81 19
-107 28 -26 8 -65 16 -85 17 -21 1 -48 8 -61 15 -12 6 -46 15 -75 18 -29 3
-56 9 -62 13 -5 4 -37 13 -70 20 -33 6 -88 20 -123 31 -34 10 -72 19 -85 19
-12 0 -42 7 -66 16 -24 8 -60 17 -80 19 -20 2 -54 11 -76 19 -22 8 -55 15 -73
16 -18 0 -42 5 -53 11 -12 6 -48 16 -82 23 l-61 12 45 31 c64 44 158 148 199
221 22 39 42 62 53 62 10 0 210 -29 445 -65z m2626 -470 c3 -13 29 -54 57 -91
28 -37 47 -70 42 -74 -4 -4 -42 -29 -83 -55 -41 -26 -85 -54 -97 -62 -20 -13
-24 -11 -66 49 -24 35 -52 77 -61 95 l-16 31 103 66 c56 36 105 66 108 66 4 0
10 -11 13 -25z m200 -356 c-15 -52 -30 -98 -34 -102 -4 -5 -27 1 -51 14 -50
25 -131 81 -125 86 2 2 32 -3 67 -12 103 -24 103 -24 134 50 16 36 30 64 32
62 2 -2 -9 -46 -23 -98z m-630 -248 c6 -9 51 -20 111 -27 17 -2 47 -9 68 -17
l38 -14 -78 -35 c-83 -38 -203 -78 -234 -78 -16 0 -13 11 24 90 39 82 57 104
71 81z m341 -778 c-3 -10 -9 -30 -12 -45 l-5 -28 -282 -1 c-154 0 -352 -1
-438 -2 -87 -1 -158 1 -158 4 0 4 15 25 33 47 l32 41 419 0 c394 1 418 0 411
-16z m1433 -29 l-3 -46 -629 1 c-347 1 -631 3 -634 5 -2 2 2 22 9 45 l12 41
624 0 624 0 -3 -46z m-4314 -2044 l26 -10 0 -268 c0 -195 -3 -271 -12 -280
-17 -17 -7329 -17 -7346 0 -9 9 -12 85 -12 280 l0 269 23 9 c31 12 7288 13
7321 0z m16536 -3 l25 -13 3 -261 c2 -228 0 -263 -14 -277 -14 -15 -345 -16
-3673 -16 -2910 0 -3661 3 -3674 13 -16 11 -17 37 -15 277 l3 264 25 13 c20
10 750 13 3660 13 2910 0 3640 -3 3660 -13z"/>
<path d="M10745 9969 c-383 -69 -751 -217 -1065 -426 l-95 -63 58 0 c64 0 99
-14 139 -57 52 -54 62 -127 28 -200 l-19 -43 48 0 c66 0 81 -14 82 -76 1 -29
-2 -57 -5 -63 -4 -6 -38 -11 -82 -11 l-74 0 0 -90 0 -90 615 0 615 0 0 84 c0
84 0 84 -27 90 -16 4 -46 5 -69 5 -22 -1 -46 1 -52 5 -7 4 -12 32 -12 66 0 69
11 80 84 80 l45 0 -19 43 c-26 57 -25 103 5 163 32 64 86 97 159 97 139 0 224
-133 166 -260 l-19 -43 54 0 c30 0 55 3 55 6 0 3 -7 34 -16 68 -49 195 -154
382 -294 526 -74 77 -228 201 -246 199 -5 -1 -31 -5 -59 -10z"/>
<path d="M9398 9328 c-120 -105 -247 -238 -341 -356 -45 -56 -83 -107 -85
-112 -2 -6 102 -10 277 -10 l281 0 0 90 0 90 -68 0 c-40 0 -73 5 -80 12 -7 7
-12 36 -12 65 0 62 13 73 84 73 51 0 52 1 32 33 -23 36 -29 99 -13 145 8 23
13 42 11 42 -2 0 -41 -33 -86 -72z"/>
<path d="M11357 9029 c-9 -6 -25 -9 -35 -8 -9 1 -36 1 -59 0 l-43 -1 0 -85 0
-85 241 0 c221 0 240 1 228 16 -20 25 -118 88 -179 117 -51 23 -131 57 -134
57 0 0 -9 -5 -19 -11z"/>
<path d="M8886 8738 c-7 -13 -30 -49 -50 -81 -43 -69 -135 -250 -169 -334
l-24 -60 96 -7 c53 -3 252 -6 444 -6 l347 0 0 255 0 255 -315 0 -315 0 -14
-22z"/>
<path d="M9760 8505 l0 -255 615 0 615 0 0 255 0 255 -615 0 -615 0 0 -255z"/>
<path d="M8704 8163 l-101 -4 -36 -117 c-19 -64 -38 -129 -41 -144 l-6 -26
505 -2 505 -1 0 151 0 150 -362 -2 c-200 -1 -408 -4 -464 -5z"/>
<path d="M9030 5544 c0 -12 110 -137 208 -238 569 -581 1354 -883 2149 -828
764 53 1426 383 1929 963 46 53 84 99 84 103 0 3 -983 6 -2185 6 -1202 0
-2185 -3 -2185 -6z"/>
<path d="M22890 8507 l0 -254 611 1 611 1 -1 243 c0 134 -3 248 -6 253 -4 5
-249 9 -611 9 l-604 0 0 -253z"/>
<path d="M19728 8295 c-6 -30 -3 -43 8 -33 3 4 4 19 2 35 l-3 28 -7 -30z"/>
<path d="M19988 8163 c-16 -4 -18 -20 -18 -144 l0 -139 615 0 615 0 0 145 0
145 -597 -1 c-329 -1 -606 -3 -615 -6z"/>
<path d="M22890 8024 l0 -144 610 0 610 0 1 125 c1 69 2 133 3 143 1 16 -35
17 -611 18 l-613 2 0 -144z"/>
<path d="M24347 8088 c-3 -46 -3 -111 0 -145 l6 -63 63 0 63 0 -24 88 c-41
152 -60 197 -82 200 -18 3 -20 -4 -26 -80z"/>
<path d="M19707 8140 c-6 -23 9 -162 22 -205 7 -22 10 4 10 98 1 102 -2 127
-13 127 -7 0 -16 -9 -19 -20z"/>
<path d="M19600 5544 c0 -23 271 -309 395 -416 286 -248 698 -464 1077 -562
950 -248 1926 5 2629 682 111 106 238 246 263 290 6 9 -433 12 -2178 12 -1202
0 -2186 -3 -2186 -6z"/>
<path d="M13036 8746 c13 -35 245 -35 258 0 4 12 -18 14 -129 14 -110 0 -133
-3 -129 -14z"/>
<path d="M11136 7377 c-72 -41 -98 -137 -58 -215 27 -52 62 -75 124 -79 96 -7
168 60 168 155 0 126 -126 201 -234 139z"/>
<path d="M21713 7383 c-52 -29 -83 -79 -83 -136 0 -94 52 -156 140 -165 129
-12 213 124 148 240 -40 71 -135 99 -205 61z"/>
<path d="M7873 15306 c-55 -127 -97 -227 -183 -436 -28 -69 -56 -134 -60 -145
-19 -43 -130 -332 -130 -338 0 -4 -8 -26 -19 -50 -34 -78 -43 -101 -135 -362
-160 -450 -222 -649 -301 -965 -72 -288 -104 -494 -106 -680 -2 -139 4 -188
33 -305 40 -160 117 -296 237 -416 136 -135 306 -237 501 -300 l85 -27 3 -274
2 -275 113 -12 c61 -7 120 -15 130 -18 16 -4 17 15 17 289 l1 293 99 32 c237
76 454 227 580 402 43 59 115 204 135 271 23 80 45 234 45 323 0 373 -187
1084 -515 1952 -59 157 -241 613 -280 705 -13 30 -58 134 -99 231 -110 260
-92 248 -153 105z"/>
<path d="M2971 15144 c-324 -725 -641 -1598 -782 -2154 -91 -359 -120 -659
-81 -837 78 -348 305 -585 682 -711 l85 -29 3 -276 2 -277 63 0 c34 0 86 3
114 6 l53 7 2 271 3 271 45 13 c234 69 459 221 584 397 55 77 77 121 109 220
64 197 64 370 1 705 -24 127 -78 349 -109 450 -7 25 -23 79 -35 120 -36 125
-200 607 -246 727 -24 62 -44 115 -44 118 0 22 -355 886 -403 982 l-24 47 -22
-50z"/>
<path d="M18614 15043 c-3 -10 -11 -31 -19 -48 -58 -127 -114 -260 -110 -264
7 -7 294 -35 300 -29 5 5 -17 61 -89 228 -50 115 -58 130 -68 130 -5 0 -11 -8
-14 -17z"/>
<path d="M27692 14418 c-11 -29 -42 -100 -67 -158 -305 -689 -612 -1612 -671
-2020 -22 -155 -15 -387 14 -477 56 -168 159 -307 301 -407 83 -59 144 -89
264 -131 l77 -28 0 -289 0 -290 38 6 c20 3 67 8 105 12 l67 6 0 277 0 277 69
22 c175 57 362 181 453 302 100 132 146 261 155 436 12 238 -60 586 -227 1099
-85 260 -287 797 -409 1088 -23 53 -59 140 -80 192 -22 52 -46 104 -54 115
-13 19 -15 18 -35 -32z"/>
<path d="M25697 12713 c-59 -114 -291 -726 -350 -923 -76 -251 -113 -454 -102
-557 16 -150 78 -265 185 -344 47 -35 147 -85 188 -94 l32 -7 0 -234 0 -234
43 6 c85 14 78 -6 80 238 l2 218 65 27 c224 90 340 247 340 461 0 243 -150
731 -420 1365 -23 55 -44 102 -45 103 -2 2 -10 -9 -18 -25z"/>
<path d="M31680 11689 c-19 -4 -52 -5 -72 -2 l-38 6 0 -311 0 -310 73 5 c39 3
73 6 74 7 4 3 5 607 2 610 -2 1 -20 -1 -39 -5z"/>
<path d="M29050 11206 l0 -396 37 0 c39 0 281 27 321 35 l22 5 0 376 0 376
-27 -6 c-130 -31 -220 -31 -330 0 l-23 6 0 -396z"/>
<path d="M4330 11245 l0 -335 185 0 185 0 0 335 c0 184 -3 335 -7 335 -5 0
-35 -7 -68 -15 -77 -18 -156 -19 -225 0 -30 8 -58 15 -62 15 -5 0 -8 -151 -8
-335z"/>
<path d="M30243 10600 c-84 -34 96 -68 202 -39 l39 11 -23 19 c-19 16 -39 19
-110 18 -47 0 -96 -4 -108 -9z"/>
<path d="M7010 10120 c-8 -5 -33 -10 -55 -10 -56 -1 -125 -33 -125 -59 0 -50
141 -83 350 -83 221 0 377 41 350 92 -11 20 -41 33 -128 54 -72 18 -367 22
-392 6z"/>
<path d="M1338 10073 c-25 -6 -30 -31 -8 -43 31 -17 145 -13 161 6 11 14 10
18 -6 30 -18 13 -108 18 -147 7z"/>
<path d="M29209 10004 c-259 -46 -508 -199 -695 -427 l-39 -49 -290 -2 c-280
-3 -293 -4 -370 -28 -164 -52 -314 -144 -416 -255 l-52 -57 32 -9 c21 -5 35
-17 42 -35 11 -28 6 -89 -8 -103 -4 -4 -41 -9 -80 -10 l-73 -2 0 -89 0 -88
615 0 615 0 0 84 0 84 -50 7 c-27 4 -53 5 -57 2 -4 -3 -18 -1 -30 4 -20 7 -23
15 -23 68 0 70 11 81 84 81 49 0 53 5 31 33 -53 70 -10 208 78 254 76 39 195
6 240 -67 29 -46 31 -151 3 -192 l-18 -28 55 0 c67 0 81 -14 80 -80 -1 -62 -7
-70 -51 -70 -20 0 -54 -3 -74 -6 l-38 -7 0 -83 0 -84 615 0 615 0 0 90 0 89
-77 3 -78 3 -3 60 c-4 72 9 85 79 85 l48 0 -19 43 c-26 57 -25 103 6 164 31
63 90 97 164 96 137 -2 220 -148 154 -274 l-15 -29 46 0 c74 0 85 -11 85 -80
0 -33 -5 -62 -11 -66 -7 -4 -42 -7 -78 -8 l-66 -1 -3 -87 -3 -88 486 0 c267 0
485 2 485 4 0 9 -116 72 -170 92 -53 20 -55 23 -63 65 -41 232 -84 347 -192
509 -85 127 -181 225 -295 299 -151 99 -295 159 -445 186 -109 19 -668 18
-776 -1z"/>
<path d="M8113 9603 c-18 -7 -16 -40 3 -47 24 -9 110 -7 138 4 32 12 34 36 4
44 -27 7 -128 7 -145 -1z"/>
<path d="M739 9423 c-13 -16 -12 -17 4 -4 16 13 21 21 13 21 -2 0 -10 -8 -17
-17z"/>
<path d="M712 9209 c-16 -25 -11 -32 16 -27 18 3 19 6 9 25 l-12 23 -13 -21z"/>
<path d="M636 9013 c-5 -18 -26 -141 -26 -155 0 -5 38 -8 85 -8 l86 0 -3 88
-3 87 -67 3 c-57 2 -67 0 -72 -15z"/>
<path d="M390 8733 c-60 -46 -154 -148 -188 -206 -45 -75 -90 -188 -94 -234
l-3 -38 338 -3 337 -2 0 255 0 255 -177 0 c-176 -1 -178 -1 -213 -27z"/>
<path d="M1010 8505 l0 -255 615 0 615 0 0 255 0 255 -615 0 -615 0 0 -255z"/>
<path d="M2470 8505 l0 -255 615 0 615 0 0 255 0 255 -615 0 -615 0 0 -255z"/>
<path d="M3930 8508 l0 -253 615 -4 615 -3 0 256 0 256 -615 0 -615 0 0 -252z"/>
<path d="M5392 8508 l3 -253 585 -3 c322 -1 595 0 608 3 l22 5 0 250 0 250
-610 0 -610 0 2 -252z"/>
<path d="M25809 8525 c-1 -129 -2 -243 -3 -252 -1 -17 35 -18 612 -20 l612 -3
0 255 0 255 -610 0 -610 0 -1 -235z"/>
<path d="M27260 8510 l0 -250 23 -5 c12 -3 288 -4 612 -3 l590 3 3 253 2 252
-615 0 -615 0 0 -250z"/>
<path d="M28720 8505 l0 -255 593 0 c325 0 602 3 615 6 l22 6 0 249 0 249
-615 0 -615 0 0 -255z"/>
<path d="M30182 8508 l3 -253 340 -3 c187 -2 463 0 613 3 l272 7 0 152 0 152
-31 50 c-17 27 -49 70 -71 97 l-40 47 -544 0 -544 0 2 -252z"/>
<path d="M32293 8603 c-12 -2 -27 -11 -33 -18 -18 -22 28 -35 125 -36 113 -1
163 26 94 50 -31 11 -140 13 -186 4z"/>
<path d="M91 8093 c1 -43 8 -107 17 -143 l17 -65 328 -3 327 -2 0 145 0 145
-345 0 -345 0 1 -77z"/>
<path d="M1010 8025 l0 -145 615 0 615 0 0 145 0 145 -615 0 -615 0 0 -145z"/>
<path d="M2470 8025 l0 -145 615 0 615 0 0 145 0 145 -615 0 -615 0 0 -145z"/>
<path d="M3930 8023 l0 -143 615 0 615 0 0 146 0 146 -615 -4 -615 -3 0 -142z"/>
<path d="M5396 8163 c-3 -3 -6 -69 -6 -145 l0 -138 610 0 610 0 0 139 c0 119
-2 140 -16 145 -22 8 -1189 7 -1198 -1z"/>
<path d="M25808 8163 c-3 -5 -3 -14 -2 -20 1 -7 2 -69 3 -138 l1 -125 610 0
610 0 0 145 0 144 -609 1 c-335 0 -611 -3 -613 -7z"/>
<path d="M27273 8163 c-10 -3 -13 -42 -13 -144 l0 -139 615 0 616 0 -3 143 -3
142 -600 2 c-330 1 -606 -1 -612 -4z"/>
<path d="M28720 8025 l0 -145 615 0 615 0 0 139 c0 135 -1 139 -22 145 -13 3
-290 6 -615 6 l-593 0 0 -145z"/>
<path d="M30187 8163 c-4 -3 -7 -69 -7 -145 l0 -138 615 0 615 0 0 138 0 139
-197 6 c-256 9 -1018 9 -1026 0z"/>
</g>
</svg>
